<?xml version="1.0" standalone="no"?>
<!DOCTYPE svg PUBLIC "-//W3C//DTD SVG 20010904//EN"
 "http://www.w3.org/TR/2001/REC-SVG-20010904/DTD/svg10.dtd">
<svg version="1.0" xmlns="http://www.w3.org/2000/svg"
 width="736.000000pt" height="736.000000pt" viewBox="0 0 736.000000 736.000000"
 preserveAspectRatio="xMidYMid meet">

<g transform="translate(0.000000,736.000000) scale(0.100000,-0.100000)"
fill="#000000" stroke="none">
<path d="M4059 5667 c-105 -39 -155 -96 -205 -234 -20 -54 -44 -120 -55 -148
-10 -27 -39 -108 -64 -180 -25 -71 -52 -146 -60 -165 -14 -36 -255 -709 -305
-855 -16 -44 -58 -163 -95 -265 -37 -102 -95 -266 -130 -365 -73 -206 -107
-299 -110 -303 -2 -2 -24 12 -49 32 -25 19 -56 38 -68 42 -13 4 -65 26 -116
50 -52 24 -95 44 -97 44 -2 0 -59 25 -127 55 -68 31 -132 60 -143 65 -11 5
-49 22 -85 38 -36 17 -108 49 -160 71 -125 55 -160 73 -160 81 0 4 42 26 93
48 50 22 144 64 207 92 63 29 205 93 315 142 319 143 340 154 383 193 23 20
52 59 66 88 l26 51 0 310 c0 306 -1 312 -24 362 -55 117 -141 174 -265 174
-86 0 -45 18 -796 -348 -220 -107 -458 -223 -530 -257 -71 -35 -238 -116 -370
-180 -132 -65 -273 -132 -312 -151 -91 -42 -154 -99 -184 -167 -23 -50 -24
-62 -27 -341 -3 -267 -2 -292 17 -347 42 -125 36 -121 567 -377 170 -82 527
-256 794 -387 267 -130 531 -259 586 -285 56 -26 104 -52 107 -57 4 -6 -3 -37
-15 -69 -16 -44 -22 -83 -22 -154 -1 -86 2 -99 26 -142 35 -59 89 -103 153
-125 42 -15 85 -18 261 -18 l211 1 67 33 c112 55 131 89 273 496 51 147 232
652 254 710 10 28 51 140 90 250 162 459 231 653 250 699 10 27 19 53 19 58 0
9 60 169 67 177 2 3 13 -5 26 -16 30 -28 77 -50 569 -269 236 -104 428 -192
428 -195 0 -4 -24 -17 -52 -29 -52 -22 -261 -116 -695 -312 -238 -107 -280
-135 -325 -220 -23 -42 -23 -48 -23 -373 0 -315 1 -332 21 -376 27 -58 85
-116 141 -141 53 -23 175 -26 224 -5 19 8 336 161 704 341 369 180 807 393
974 474 350 169 382 192 420 304 19 57 21 84 21 328 0 290 -6 335 -58 412 -32
49 -79 82 -207 143 -55 26 -219 106 -365 178 -444 217 -1126 549 -1297 632
-90 43 -163 82 -163 86 0 4 19 58 43 121 38 102 42 122 42 203 0 69 -5 99 -19
129 -25 50 -75 100 -129 128 -40 22 -55 23 -272 25 -171 2 -239 -1 -266 -10z
m269 -321 c-2 -30 -7 -52 -12 -49 -4 3 -6 -3 -2 -13 3 -11 1 -36 -3 -56 -5
-21 -5 -38 -1 -38 5 0 11 -8 13 -17 3 -12 5 -8 6 9 0 15 6 30 11 33 14 9 12
55 -2 55 -9 0 -9 3 -2 8 5 4 10 33 10 64 -1 52 1 58 19 58 16 0 20 -7 20 -30
0 -16 -4 -30 -10 -30 -5 0 -3 -5 5 -10 12 -8 16 -2 20 28 5 34 8 37 41 40 l37
3 -37 -100 c-23 -65 -41 -101 -51 -102 -9 0 -11 -2 -3 -5 11 -5 11 -13 -4 -51
-3 -10 -7 -20 -8 -23 -10 -42 -50 -143 -59 -153 -7 -7 -11 -18 -8 -25 2 -7 -5
-12 -17 -12 -12 0 -21 -6 -21 -15 0 -8 6 -12 14 -9 11 4 13 0 9 -18 -3 -13 -9
-27 -13 -33 -4 -5 -16 -38 -25 -72 -10 -36 -23 -63 -31 -63 -7 0 -16 -5 -20
-12 -5 -7 -2 -9 9 -5 13 5 14 2 5 -24 -10 -29 -19 -33 -70 -29 -16 1 -28 -3
-28 -8 0 -5 18 -8 40 -6 30 2 40 -1 40 -12 0 -7 -5 -14 -11 -14 -5 0 -7 -4 -4
-10 3 -5 -1 -10 -9 -10 -18 0 -22 -16 -5 -22 15 -5 -16 -68 -34 -69 -9 0 -9
-2 0 -6 10 -3 10 -11 -1 -36 -7 -18 -13 -34 -14 -37 -4 -30 -16 -60 -24 -60
-5 0 -7 -4 -4 -9 3 -5 -12 -55 -33 -112 -38 -100 -45 -107 -55 -49 -3 14 -5
27 -5 30 -1 3 -5 -1 -10 -9 -5 -7 -5 -27 -1 -43 5 -17 5 -26 -1 -23 -5 4 -9 1
-9 -4 0 -6 4 -11 8 -11 8 0 -1 -102 -12 -130 -3 -8 -10 -28 -16 -44 -9 -25
-12 -27 -28 -15 -15 13 -16 12 -3 -4 11 -14 11 -25 1 -62 -7 -25 -17 -48 -21
-51 -5 -3 -9 -11 -9 -19 0 -8 -5 -26 -12 -42 -14 -34 -15 -39 -17 -58 0 -8 -7
-15 -15 -15 -9 0 -12 -8 -8 -25 4 -25 -12 -35 -22 -12 -3 6 -2 -7 1 -30 4 -29
2 -43 -6 -43 -6 0 -11 -9 -11 -21 0 -13 -4 -18 -12 -13 -10 6 -10 5 -1 -7 9
-11 7 -22 -7 -51 -10 -20 -15 -40 -11 -44 3 -4 -2 -4 -12 -1 -16 6 -18 3 -12
-22 4 -18 0 -43 -11 -67 -9 -22 -18 -44 -20 -51 -7 -34 -69 -199 -77 -208 -7
-7 -8 -5 -4 6 3 9 -3 20 -14 27 -10 7 -20 24 -20 40 -1 15 -3 20 -6 10 -3 -11
-10 -15 -21 -11 -12 4 -10 -1 7 -17 13 -13 29 -38 37 -55 12 -29 11 -40 -3
-82 -20 -62 -27 -68 -48 -47 -17 17 -17 17 -9 -6 15 -42 9 -93 -16 -145 -14
-28 -23 -54 -22 -59 2 -4 -6 -27 -16 -50 -27 -56 -35 -80 -34 -88 1 -4 -8 -33
-19 -65 l-22 -56 -17 34 c-18 33 -18 33 -17 7 1 -16 6 -28 12 -28 5 0 4 -5 -2
-11 -8 -8 -9 -16 -1 -29 7 -10 8 -25 3 -36 -5 -11 -9 -21 -10 -24 -9 -37 -30
-87 -39 -92 -6 -4 -21 2 -33 14 -13 12 -23 16 -23 10 0 -7 5 -12 11 -12 5 0 7
-4 4 -10 -5 -9 14 -15 37 -11 3 0 2 -14 -3 -32 -5 -17 -9 -33 -9 -35 0 -2 -4
-1 -9 2 -5 4 -7 -3 -4 -14 7 -25 -12 -26 -26 -2 -6 9 -11 14 -11 9 0 -4 5 -15
11 -26 18 -27 3 -92 -23 -98 -14 -4 -16 -8 -7 -14 10 -6 8 -18 -6 -55 -15 -38
-20 -44 -29 -32 -12 16 -56 31 -56 18 0 -5 9 -12 20 -15 11 -3 20 -10 20 -15
0 -5 2 -14 5 -22 4 -10 -26 -13 -155 -15 -88 0 -160 2 -160 5 1 32 15 53 31
49 12 -3 19 0 19 9 0 8 -7 14 -15 14 -19 0 -20 -4 11 80 15 40 33 74 41 77 10
4 11 8 4 12 -11 7 40 163 109 336 5 11 16 45 26 75 9 30 20 59 25 64 5 6 9 18
9 28 0 10 3 18 6 18 11 0 43 -45 44 -60 0 -12 2 -13 9 -1 5 8 4 23 -4 38 -17
33 -10 154 10 169 8 6 15 25 15 41 0 31 23 97 31 89 2 -2 4 8 5 23 1 15 8 43
17 61 10 18 17 37 17 43 0 5 7 25 17 44 l16 35 14 -24 14 -23 -6 23 c-5 16 -1
28 12 37 17 13 17 14 -4 8 -13 -3 -23 -2 -23 2 0 18 36 105 43 105 4 0 6 4 3
9 -6 8 59 202 98 296 7 17 28 76 47 133 18 56 36 102 40 102 3 0 16 -21 28
-47 l21 -48 -3 72 c-1 40 -3 68 -5 63 -6 -18 -22 -10 -22 10 0 11 20 76 45
144 25 69 45 129 45 134 0 19 26 31 73 34 26 2 47 6 47 10 0 4 -22 4 -50 1
l-50 -6 14 44 c26 81 105 301 110 306 8 8 26 -7 26 -23 0 -8 5 -14 10 -14 6 0
10 5 10 11 0 7 6 17 14 23 17 13 25 45 11 43 -5 -1 -9 -5 -8 -8 3 -9 -48 -22
-55 -14 -4 3 0 10 8 15 8 5 12 12 8 15 -3 4 -2 20 4 36 8 24 14 28 32 24 20
-6 20 -5 3 9 -18 14 -18 17 4 78 12 35 26 67 31 72 4 6 8 18 8 28 0 10 5 18
11 18 5 0 7 4 4 10 -3 5 1 24 9 42 8 18 20 52 27 76 7 23 16 42 21 42 5 0 8 6
7 13 -1 6 0 19 4 27 3 8 8 27 11 43 8 33 34 36 34 5 1 -34 9 -172 11 -180 3
-19 20 -5 23 18 3 28 32 54 44 41 5 -4 0 -21 -10 -38 -10 -17 -15 -33 -12 -36
3 -3 10 6 15 21 10 25 20 31 51 26 12 -2 11 3 -4 19 -11 12 -16 29 -13 41 3
13 0 20 -9 20 -9 0 -11 -6 -7 -17 6 -15 4 -16 -8 -6 -16 13 -45 1 -35 -15 3
-5 -1 -13 -10 -16 -14 -5 -16 2 -11 59 2 35 1 66 -3 67 -15 6 -20 45 -7 63 13
17 15 16 30 -15 9 -18 14 -36 11 -41 -3 -5 0 -9 6 -9 15 0 4 49 -16 71 -8 9
-11 20 -7 25 4 5 1 3 -7 -3 -8 -7 -18 -13 -22 -13 -12 0 -9 27 5 42 6 7 13 22
14 34 1 11 7 32 12 47 10 27 12 27 106 27 l96 0 -3 -54z m235 -549 c4 3 7 1 7
-5 0 -7 11 -12 25 -12 14 0 33 -9 42 -19 9 -11 20 -18 24 -15 10 6 111 -44
121 -60 4 -6 8 -8 8 -4 0 4 26 -6 59 -22 32 -17 64 -30 70 -30 6 0 11 -4 11
-10 0 -5 9 -10 20 -10 13 0 29 -14 43 -37 16 -28 23 -33 25 -20 5 23 6 22 85
-15 50 -24 66 -36 62 -48 -5 -11 -3 -12 6 -3 12 12 59 -2 59 -19 0 -4 7 -8 15
-8 23 0 185 -80 185 -91 0 -6 4 -8 9 -5 14 9 41 -4 41 -19 0 -8 8 -11 19 -8
15 4 19 -3 25 -37 3 -22 11 -38 16 -35 6 4 5 13 -2 25 -20 31 -1 35 48 12 43
-21 57 -51 20 -44 -9 2 -16 -2 -16 -8 0 -5 5 -10 11 -10 7 0 17 -8 24 -17 12
-16 13 -15 8 8 -6 31 19 46 41 24 7 -8 16 -12 19 -9 3 3 15 1 26 -6 23 -12 27
-40 11 -71 -6 -11 -7 -19 -1 -19 11 0 21 24 21 51 0 10 2 19 5 19 15 0 65 -32
65 -41 0 -6 4 -8 8 -5 12 7 135 -52 145 -69 4 -8 13 -12 20 -9 7 2 21 -2 31
-9 15 -11 16 -17 7 -35 -19 -35 -12 -46 12 -19 22 27 57 37 57 17 0 -5 7 -10
15 -10 8 0 23 -8 33 -18 10 -10 23 -17 29 -15 6 2 30 -5 53 -17 45 -23 47 -35
15 -105 -22 -46 -35 -114 -23 -121 5 -4 18 -25 28 -48 14 -31 19 -35 19 -19 1
15 6 21 15 17 8 -3 17 -1 21 5 3 6 19 11 36 11 44 0 35 15 -10 16 -31 1 -38
-2 -34 -13 9 -24 -31 1 -51 31 -22 35 -21 37 24 103 22 31 38 63 36 70 -3 7
-3 13 0 13 5 0 147 -70 154 -77 2 -2 5 -114 6 -248 2 -170 -1 -247 -9 -252 -6
-3 -13 -1 -15 5 -2 7 -8 12 -14 12 -6 0 -8 -7 -5 -15 4 -10 -19 -27 -84 -60
-49 -25 -94 -43 -99 -40 -6 4 -10 2 -10 -3 0 -5 -11 -14 -25 -20 -19 -9 -25
-9 -25 1 0 6 -8 2 -18 -9 -15 -19 -52 -44 -65 -44 -2 0 -4 8 -4 18 1 55 -4 72
-19 72 -13 0 -15 6 -10 28 3 15 9 42 12 60 5 26 11 32 31 32 20 0 24 -4 20
-20 -3 -11 -1 -23 4 -26 10 -6 10 -7 14 57 l2 45 -25 -25 c-17 -17 -27 -21
-30 -13 -3 10 -7 10 -19 1 -20 -18 -35 7 -28 46 6 29 5 29 -10 10 -8 -11 -13
-26 -9 -35 9 -22 26 -261 19 -268 -3 -3 -22 11 -41 31 -20 20 -41 37 -48 37
-6 0 8 -19 32 -42 l43 -41 -85 -43 c-85 -44 -113 -53 -101 -34 3 6 1 10 -4 10
-6 0 -11 -6 -11 -12 -1 -17 -48 -51 -60 -43 -14 9 -12 42 3 48 7 4 6 6 -5 6
-9 1 -23 4 -32 7 -19 7 -22 -26 -6 -56 8 -15 4 -22 -26 -39 -20 -12 -40 -19
-45 -16 -5 4 -9 1 -9 -4 0 -6 -7 -11 -15 -11 -8 0 -15 -4 -15 -8 0 -12 -78
-47 -86 -39 -3 3 -3 11 2 18 9 16 11 79 2 79 -5 0 -8 -8 -8 -17 0 -14 -3 -13
-20 5 -20 21 -30 27 -30 17 0 -2 11 -14 24 -27 19 -18 23 -30 19 -55 -4 -23
-9 -30 -21 -26 -11 5 -13 2 -8 -8 4 -8 1 -5 -8 5 -8 10 -13 22 -11 26 6 10
-24 35 -32 27 -3 -4 -18 19 -33 51 -29 61 -28 71 15 114 14 15 21 28 15 30 -6
2 8 23 32 46 l43 43 22 -28 c26 -32 33 -10 8 23 -8 10 -15 27 -15 37 0 21 -20
23 -20 2 0 -8 -4 -15 -10 -15 -5 0 -10 -6 -10 -13 0 -15 -49 -42 -58 -32 -3 2
2 13 12 24 16 18 15 20 -20 49 -33 27 -35 31 -18 40 11 5 25 7 32 5 6 -3 12 0
12 6 0 14 33 14 47 0 12 -12 53 -3 53 12 0 6 -6 6 -18 0 -11 -6 -24 -6 -32 -1
-18 11 -17 12 57 45 64 28 83 27 83 -6 0 -14 -4 -18 -12 -13 -8 5 -7 0 2 -11
14 -17 13 -17 -10 -10 -23 7 -23 7 -6 -10 9 -10 13 -21 8 -24 -19 -12 -22 -47
-6 -67 15 -19 15 -19 5 2 -8 16 -5 23 10 32 11 7 24 10 28 7 5 -2 12 6 15 20
7 28 43 65 64 65 8 0 21 -8 29 -17 14 -17 14 -17 9 0 -3 9 -1 17 5 17 6 0 8 4
5 9 -4 5 0 12 6 14 8 3 6 6 -5 6 -10 1 -15 6 -12 11 3 6 2 10 -4 10 -5 0 -11
-4 -13 -8 -1 -5 -26 -20 -55 -35 l-52 -25 2 39 c1 22 7 41 15 44 18 7 62 -5
62 -16 0 -5 5 -9 10 -9 7 0 7 6 0 19 -13 25 -13 41 1 41 5 0 29 9 52 19 23 11
45 19 50 20 4 0 20 7 35 14 15 8 46 24 68 36 24 12 50 18 60 15 16 -5 16 -4 4
5 -12 9 -9 11 14 11 36 0 27 10 -27 30 -30 11 -41 21 -39 33 2 9 -2 25 -7 35
-9 15 -10 15 -11 -5 0 -25 -19 -30 -50 -13 -17 9 -18 50 -1 50 4 0 7 10 5 23
-4 33 -4 33 -12 20 -6 -10 -14 -9 -36 2 -24 13 -27 13 -17 1 10 -11 8 -16 -8
-21 -12 -3 -21 -13 -21 -21 0 -18 0 -18 -47 4 -22 9 -38 23 -35 30 4 14 -15
17 -20 3 -1 -5 -19 -1 -38 8 -33 16 -35 20 -33 61 2 44 1 44 -15 24 -10 -11
-24 -18 -31 -16 -10 3 -12 0 -8 -12 4 -9 4 -16 2 -16 -18 0 -120 54 -136 72
-11 13 -18 17 -14 11 8 -17 -10 -16 -43 1 -15 7 -51 24 -79 37 -32 13 -53 29
-53 38 0 12 -2 13 -8 3 -8 -13 -42 -7 -42 7 0 4 -6 8 -14 8 -7 0 -33 9 -57 20
-24 11 -67 30 -96 43 -29 13 -50 26 -48 30 3 4 -5 8 -18 8 -22 0 -187 67 -197
80 -3 4 -9 7 -15 7 -5 0 -54 20 -107 44 -75 34 -98 49 -98 64 0 16 5 18 28 13
16 -4 22 -3 14 2 -9 6 -1 14 28 27 22 10 38 20 36 23 -3 2 -22 -5 -43 -16 -22
-11 -51 -19 -66 -19 l-26 0 0 100 c0 96 12 144 29 117 5 -8 9 -4 13 9 2 11 -1
28 -9 38 -12 17 -13 16 -14 -9 0 -15 -4 -30 -10 -33 -6 -4 -10 40 -10 126 0
127 1 132 18 116 10 -10 22 -14 25 -10z m-1726 -238 c-2 -212 -4 -253 -17
-260 -42 -25 -170 -79 -190 -81 -22 -3 -29 8 -32 49 -1 7 -8 15 -15 18 -8 3
-12 12 -9 22 5 15 0 18 -27 18 -17 0 -45 4 -62 8 -28 8 -29 7 -10 -6 11 -8 34
-18 51 -21 26 -6 35 -15 48 -49 9 -24 16 -48 16 -54 0 -13 -28 -25 -40 -18 -4
3 -11 -2 -14 -11 -4 -11 -15 -15 -36 -12 -16 2 -27 1 -25 -3 7 -10 -13 -22
-65 -43 -25 -10 -56 -24 -70 -31 -41 -21 -74 -22 -78 -2 -3 13 4 17 30 18 30
2 31 2 6 6 -16 2 -28 10 -29 16 -2 49 -11 102 -19 116 -8 13 -10 14 -11 1 -4
-45 -3 -80 3 -80 4 0 3 -12 -1 -28 -5 -15 -4 -38 1 -52 7 -20 5 -28 -12 -42
-11 -9 -28 -14 -35 -11 -9 3 -15 -1 -15 -8 0 -11 -2 -11 -10 1 -8 13 -11 12
-22 -3 -8 -10 -19 -17 -25 -15 -6 2 -12 -1 -13 -7 -4 -17 -37 -35 -53 -29 -8
3 -17 -2 -21 -11 -7 -19 -44 -12 -63 13 -7 9 -13 11 -13 4 0 -6 10 -18 22 -26
21 -15 21 -16 2 -22 -10 -3 -55 -23 -99 -44 -142 -68 -195 -89 -210 -84 -8 4
-15 2 -15 -4 0 -10 -96 -64 -137 -76 -17 -6 -23 -3 -23 8 0 9 -4 16 -10 16 -5
0 -10 -8 -10 -18 0 -24 -19 -42 -46 -42 -12 0 -27 -7 -34 -15 -7 -8 -18 -15
-24 -15 -6 0 -18 -5 -26 -10 -13 -9 -13 -11 0 -20 8 -5 16 -14 16 -20 3 -23 5
-24 13 -11 8 12 17 11 55 -7 25 -12 50 -22 56 -22 5 0 10 -4 10 -10 0 -5 9
-10 20 -10 11 0 23 -7 26 -15 4 -8 10 -12 15 -9 5 3 29 -3 52 -14 167 -77 187
-88 182 -100 -2 -7 5 -17 18 -22 12 -5 18 -9 14 -9 -4 -1 -3 -10 2 -20 8 -14
6 -25 -10 -45 -11 -14 -16 -26 -10 -26 5 0 18 11 29 25 11 14 25 25 31 25 6 0
11 4 11 9 0 5 -7 8 -16 7 -20 -1 -27 14 -14 34 7 12 12 12 34 1 14 -8 23 -17
21 -22 -3 -4 3 -5 13 -2 10 2 24 -3 31 -11 8 -9 24 -16 37 -16 13 0 24 -4 24
-10 0 -5 9 -10 20 -10 12 0 32 -11 46 -25 14 -14 29 -25 34 -25 5 0 12 -5 15
-11 5 -7 -7 -9 -34 -6 -23 2 -41 1 -41 -4 0 -4 27 -9 60 -11 45 -2 60 0 60 10
0 7 -5 10 -12 6 -7 -4 -8 -3 -4 4 8 13 36 5 36 -10 0 -5 3 -7 8 -4 10 6 36
-14 50 -39 6 -11 12 -14 12 -7 0 17 25 15 63 -5 18 -10 61 -29 96 -43 35 -14
66 -31 69 -39 3 -8 0 -11 -7 -7 -6 4 -11 3 -11 -3 0 -13 39 -35 48 -27 3 3 0
6 -6 6 -7 0 -12 7 -12 15 0 20 -1 20 81 -17 53 -24 74 -39 85 -62 10 -22 13
-24 10 -8 -5 28 -1 28 79 -8 59 -26 66 -32 60 -51 -6 -18 -4 -21 9 -16 10 4
16 1 16 -9 0 -12 -4 -13 -21 -4 -16 9 -20 8 -18 -2 3 -28 -1 -49 -10 -44 -5 4
-15 -7 -23 -24 -12 -28 -28 -40 -28 -22 0 4 -17 14 -37 22 -21 8 -41 16 -45
18 -5 2 -8 -1 -8 -6 0 -5 20 -19 45 -31 47 -22 52 -30 35 -47 -8 -8 -6 -15 5
-24 12 -10 15 -10 15 4 0 9 7 16 17 16 9 0 13 -3 10 -7 -4 -3 7 -16 25 -29 28
-21 29 -24 12 -29 -39 -13 -48 -22 -63 -67 -11 -31 -21 -44 -32 -43 -12 2 -15
-3 -12 -15 3 -10 0 -21 -6 -24 -6 -4 -11 -16 -11 -27 0 -10 -2 -19 -5 -19 -13
0 -55 24 -55 32 0 5 -4 7 -10 3 -5 -3 -18 0 -29 7 -25 15 -10 38 19 31 14 -4
20 0 20 11 0 9 -5 16 -11 16 -5 0 -7 -5 -3 -11 4 -7 0 -9 -14 -5 -11 4 -30 1
-41 -6 -16 -10 -23 -10 -32 -1 -10 10 -7 15 12 22 13 5 18 10 11 10 -7 1 -21
-4 -31 -11 -16 -10 -35 -4 -115 35 -78 38 -95 50 -90 64 5 15 4 15 -4 3 -9
-12 -16 -12 -49 5 -21 10 -40 19 -43 20 -26 7 -123 61 -127 71 -2 7 -11 10
-19 7 -8 -3 -14 1 -14 8 0 8 -10 25 -21 39 l-21 25 16 -27 c16 -27 16 -28 -4
-28 -12 0 -18 5 -15 10 3 6 -3 10 -14 10 -20 0 -182 78 -215 105 -11 8 -17 17
-14 21 4 3 -4 26 -17 52 -13 25 -20 52 -17 60 3 10 1 13 -6 8 -13 -8 -11 -26
6 -69 7 -16 12 -30 12 -33 0 -7 -71 2 -92 11 -22 9 -21 5 -3 48 13 32 13 36
-2 49 -12 9 -15 10 -9 0 4 -7 2 -28 -4 -46 l-11 -34 -117 58 c-65 33 -126 68
-137 79 -10 12 -23 21 -29 21 -6 0 -4 -5 4 -10 34 -22 -10 -7 -80 27 -89 43
-88 42 -72 52 9 5 8 12 -4 27 -15 18 -15 18 -9 -3 5 -17 2 -23 -9 -23 -22 0
-66 22 -61 30 3 4 -1 7 -8 6 -6 0 -14 4 -15 9 -2 6 -9 16 -15 23 -8 10 -7 16
4 23 11 7 10 9 -5 9 -14 0 -17 -6 -14 -25 3 -14 3 -25 1 -25 -2 0 -26 11 -53
25 -51 26 -71 46 -52 53 20 6 13 20 -7 15 -12 -3 -17 -11 -14 -19 6 -17 -7
-18 -27 -1 -12 10 -16 47 -18 194 -2 166 -1 183 15 192 17 10 17 10 1 11 -15
0 -18 9 -18 49 0 41 4 51 26 66 14 9 32 14 40 11 8 -3 13 -2 10 2 -8 13 137
83 148 72 6 -6 15 -10 20 -10 6 0 5 4 -3 9 -20 13 -2 34 25 28 13 -2 21 -1 19
4 -3 4 31 26 75 48 79 41 101 48 99 34 -1 -5 0 -17 1 -28 2 -12 5 -5 9 15 6
33 12 38 131 97 69 34 133 62 142 62 9 1 18 6 20 13 2 6 13 12 25 13 11 0 28
9 37 18 10 9 26 17 37 17 10 0 19 4 19 9 0 15 33 22 42 9 6 -10 8 -9 8 3 0 20
23 31 48 23 12 -4 13 -3 4 3 -9 7 -2 14 23 26 l35 17 0 -45 c0 -24 5 -47 11
-51 7 -4 10 4 9 22 -6 82 -5 83 71 118 62 29 74 31 105 22 19 -6 32 -16 30
-22 -3 -8 8 -10 35 -7 31 5 43 2 54 -13 11 -15 14 -16 15 -4 0 24 -13 35 -40
34 -54 -1 -70 52 -24 77 23 12 27 11 39 -4 17 -23 28 -22 15 3 -8 15 -6 21 10
30 17 9 20 8 20 -10 0 -11 7 -20 16 -20 11 0 15 8 12 27 -2 20 2 29 15 31 11
2 34 14 53 27 19 13 56 31 82 41 26 10 55 24 66 33 17 15 18 14 16 -9 -4 -42
0 -74 7 -66 12 11 12 36 0 36 -8 0 -7 4 1 12 7 7 12 19 12 28 0 14 51 44 132
78 17 7 7 -36 -12 -53 -19 -17 -19 -19 -2 -31 14 -11 15 -16 4 -33 -7 -13 -8
-21 -2 -21 6 0 15 11 20 24 5 13 15 26 22 29 7 3 1 6 -15 6 -25 1 -26 3 -15
21 12 18 13 19 20 2 4 -9 5 2 1 25 -5 41 -5 42 43 67 89 46 83 60 81 -225z
m-682 -90 c12 -19 -5 -23 -22 -6 -16 16 -16 17 -1 17 9 0 20 -5 23 -11z m2385
-155 c0 -8 -4 -12 -10 -9 -5 3 -10 10 -10 16 0 5 5 9 10 9 6 0 10 -7 10 -16z
m1330 -543 c0 -6 -5 -13 -10 -16 -6 -4 -8 -10 -5 -15 3 -4 -2 -10 -10 -14 -11
-4 -15 1 -15 18 0 12 3 26 7 29 10 10 33 8 33 -2z m-486 -463 c-4 -6 -3 -8 2
-5 5 3 20 -3 34 -13 18 -14 21 -21 13 -32 -6 -7 -13 -29 -15 -48 -3 -40 -31
-49 -36 -12 -2 16 2 22 14 22 14 0 16 2 5 13 -10 10 -16 7 -30 -12 -13 -17
-25 -22 -40 -18 -28 7 -27 -1 5 -29 23 -22 26 -52 3 -39 -5 4 -9 1 -9 -4 0 -6
5 -11 10 -11 19 0 10 -19 -24 -52 -30 -29 -32 -35 -19 -47 13 -12 14 -11 9 6
-8 26 22 41 31 16 6 -14 7 -14 19 2 16 21 38 10 31 -16 -3 -11 0 -19 8 -19 7
0 16 -11 19 -25 4 -14 13 -25 21 -25 8 0 21 -13 30 -29 17 -34 22 -29 -91 -85
-33 -16 -80 -39 -105 -52 -26 -13 -54 -24 -63 -24 -9 0 -16 -5 -16 -11 0 -6
-9 -9 -20 -6 -11 3 -18 1 -14 -4 3 -5 -8 -14 -23 -20 -15 -6 -35 -15 -43 -20
-8 -5 -37 -20 -65 -33 -27 -13 -121 -58 -208 -101 -87 -42 -161 -74 -164 -71
-3 3 -11 -1 -17 -9 -6 -9 -35 -26 -64 -40 l-52 -24 0 79 c0 47 4 80 10 80 6 0
10 7 10 15 0 8 9 19 19 24 20 11 41 58 46 101 2 14 1 20 -2 13 -2 -7 -11 -9
-19 -6 -10 4 -12 0 -8 -11 4 -10 1 -16 -7 -16 -11 0 -11 -2 1 -10 21 -13 0
-31 -28 -24 -16 5 -22 14 -22 35 0 16 5 29 11 29 5 0 8 4 5 9 -7 11 22 23 35
15 5 -3 10 0 10 5 1 6 2 17 3 24 0 6 7 13 14 13 25 3 27 4 13 13 -18 12 -7 41
16 41 22 0 50 17 42 25 -4 3 -18 1 -32 -4 -25 -10 -26 -9 -17 14 5 14 7 25 4
25 -2 0 3 15 13 33 9 17 17 39 17 47 1 8 12 17 26 19 14 1 27 6 30 11 8 11
122 62 127 56 3 -3 12 1 20 9 8 8 20 15 26 15 7 0 6 -5 -3 -11 -12 -9 -11 -10
6 -6 28 6 55 -10 48 -28 -4 -10 0 -15 12 -15 16 0 17 2 4 10 -8 5 -10 10 -5
10 6 0 -3 11 -19 24 l-29 24 24 13 c13 7 51 13 84 14 74 3 75 3 75 14 0 10
-45 5 -63 -6 -5 -3 -8 0 -6 6 3 7 38 27 79 46 60 27 76 31 78 20 4 -19 26 -19
42 0 9 10 9 15 1 15 -6 0 -11 -4 -11 -10 0 -5 -4 -10 -10 -10 -23 0 -8 30 18
36 15 4 33 11 39 16 7 6 38 21 70 33 56 23 80 24 67 3z m-24 -122 c0 -3 -4 -8
-10 -11 -5 -3 -10 -1 -10 4 0 6 5 11 10 11 6 0 10 -2 10 -4z m11 -69 c-10 -9
-11 -8 -5 6 3 10 9 15 12 12 3 -3 0 -11 -7 -18z m-785 -152 c-9 -9 -14 -20
-11 -25 3 -5 1 -11 -5 -15 -18 -11 -11 -27 10 -22 25 7 34 -7 15 -23 -12 -10
-18 -10 -30 0 -13 10 -15 9 -15 -9 0 -12 -6 -21 -15 -21 -20 0 -22 100 -2 100
6 0 23 9 37 20 29 22 40 18 16 -5z m-2826 5 c0 -5 -4 -10 -9 -10 -6 0 -13 5
-16 10 -3 6 1 10 9 10 9 0 16 -4 16 -10z m2790 -134 c0 -2 -7 -9 -15 -16 -12
-10 -15 -10 -15 4 0 9 7 16 15 16 8 0 15 -2 15 -4z m-1710 -61 c-1 -49 -33
-56 -50 -11 -10 27 -7 31 24 31 19 0 26 -5 26 -20z m361 -22 c-12 -20 -14 -14
-5 12 4 9 9 14 11 11 3 -2 0 -13 -6 -23z m-361 -178 l0 -115 -30 0 c-16 0 -44
9 -62 20 -18 11 -29 20 -25 20 5 0 1 8 -9 18 -17 16 -17 17 4 20 12 2 22 8 22
13 0 6 3 8 8 6 4 -3 8 6 9 21 0 14 8 29 17 34 9 5 16 15 16 23 0 9 6 12 15 9
11 -5 13 -2 9 11 -6 14 8 34 24 35 1 0 2 -52 2 -115z m0 -135 c0 -5 -2 -10 -4
-10 -3 0 -8 5 -11 10 -3 6 -1 10 4 10 6 0 11 -4 11 -10z"/>
<path d="M4250 5287 c0 -20 -26 -23 -34 -4 -3 6 -5 3 -3 -7 3 -26 35 -29 43
-4 3 11 3 22 0 25 -3 4 -6 -1 -6 -10z"/>
<path d="M4180 5239 c0 -5 5 -7 10 -4 6 3 10 8 10 11 0 2 -4 4 -10 4 -5 0 -10
-5 -10 -11z"/>
<path d="M4234 5206 c-3 -19 -1 -43 5 -53 8 -14 10 -8 11 35 0 60 -6 67 -16
18z"/>
<path d="M4218 5123 c7 -3 16 -2 19 1 4 3 -2 6 -13 5 -11 0 -14 -3 -6 -6z"/>
<path d="M4338 5123 c7 -3 16 -2 19 1 4 3 -2 6 -13 5 -11 0 -14 -3 -6 -6z"/>
<path d="M4033 4970 c1 -11 5 -20 9 -20 4 0 8 9 8 20 0 11 -4 20 -9 20 -6 0
-9 -9 -8 -20z"/>
<path d="M4093 4937 c0 -22 -5 -42 -12 -46 -10 -6 -9 -10 2 -14 11 -4 17 4 22
31 4 20 12 41 18 45 8 6 6 7 -5 4 -9 -3 -19 -1 -21 6 -3 7 -5 -5 -4 -26z"/>
<path d="M4276 4961 c-4 -7 -5 -15 -2 -18 9 -9 19 4 14 18 -4 11 -6 11 -12 0z"/>
<path d="M4235 4890 c-3 -5 -1 -10 4 -10 6 0 11 5 11 10 0 6 -2 10 -4 10 -3 0
-8 -4 -11 -10z"/>
<path d="M4187 4870 c-3 -11 -1 -20 4 -20 5 0 9 9 9 20 0 11 -2 20 -4 20 -2 0
-6 -9 -9 -20z"/>
<path d="M3973 4855 c-10 -11 -9 -13 6 -12 11 1 17 7 14 14 -6 16 -5 16 -20
-2z"/>
<path d="M4137 4849 c7 -7 15 -10 18 -7 3 3 -2 9 -12 12 -14 6 -15 5 -6 -5z"/>
<path d="M4000 4807 c0 -18 -4 -25 -14 -21 -8 3 -16 1 -19 -3 -3 -5 6 -9 21
-8 23 0 26 4 24 25 -5 35 -12 39 -12 7z"/>
<path d="M4145 4780 c3 -5 8 -10 11 -10 2 0 4 5 4 10 0 6 -5 10 -11 10 -5 0
-7 -4 -4 -10z"/>
<path d="M4180 4786 c0 -9 30 -14 35 -6 4 6 -3 10 -14 10 -12 0 -21 -2 -21 -4z"/>
<path d="M4012 4751 c2 -7 7 -12 11 -12 12 1 9 15 -3 20 -7 2 -11 -2 -8 -8z"/>
<path d="M3985 4740 c3 -5 8 -10 11 -10 2 0 4 5 4 10 0 6 -5 10 -11 10 -5 0
-7 -4 -4 -10z"/>
<path d="M4038 4726 c-23 -17 -23 -22 2 -29 23 -6 30 2 21 25 -5 14 -9 14 -23
4z"/>
<path d="M4133 4719 c-18 -5 -33 -11 -33 -14 0 -8 51 2 62 13 14 14 14 13 -29
1z"/>
<path d="M3981 4672 c-23 -33 -26 -42 -12 -42 10 0 44 61 37 67 -2 2 -13 -9
-25 -25z"/>
<path d="M4025 4670 c3 -5 8 -10 11 -10 2 0 4 5 4 10 0 6 -5 10 -11 10 -5 0
-7 -4 -4 -10z"/>
<path d="M4065 4640 c-3 -5 -1 -10 4 -10 6 0 11 5 11 10 0 6 -2 10 -4 10 -3 0
-8 -4 -11 -10z"/>
<path d="M4037 4590 c10 -11 21 -20 25 -20 5 0 3 9 -4 20 -7 11 -18 20 -25 20
-9 0 -7 -6 4 -20z"/>
<path d="M3930 4586 c0 -2 11 -6 25 -8 13 -3 22 -1 19 3 -5 9 -44 13 -44 5z"/>
<path d="M4084 4559 c-3 -6 0 -18 9 -26 13 -13 14 -12 10 11 -6 29 -9 31 -19
15z"/>
<path d="M3885 4520 c-3 -4 6 -10 20 -12 14 -3 25 -2 25 2 0 11 -39 20 -45 10z"/>
<path d="M4106 4501 c-4 -7 -5 -15 -2 -18 9 -9 19 4 14 18 -4 11 -6 11 -12 0z"/>
<path d="M3955 4480 c-4 -6 -22 -9 -41 -6 -19 4 -34 2 -34 -4 0 -15 83 -11
104 5 19 15 19 15 -1 15 -12 0 -25 -5 -28 -10z"/>
<path d="M3835 4450 c10 -11 20 -18 23 -16 5 6 -23 36 -34 36 -4 0 1 -9 11
-20z"/>
<path d="M3876 4434 c-11 -28 -7 -36 14 -31 11 3 20 2 20 -3 0 -4 14 -10 30
-12 39 -6 38 0 -5 18 -19 8 -35 21 -35 29 0 20 -16 19 -24 -1z"/>
<path d="M3820 4376 c0 -2 7 -7 16 -10 8 -3 12 -2 9 4 -6 10 -25 14 -25 6z"/>
<path d="M4040 4371 c0 -5 7 -17 16 -26 9 -9 18 -14 21 -11 3 2 -5 14 -16 25
-12 12 -21 17 -21 12z"/>
<path d="M3776 4345 c-3 -9 0 -15 9 -15 9 0 12 6 9 15 -4 8 -7 15 -9 15 -2 0
-5 -7 -9 -15z"/>
<path d="M3949 4348 c7 -9 9 -23 5 -30 -6 -10 -4 -11 7 0 11 10 10 15 -6 30
-17 15 -18 15 -6 0z"/>
<path d="M3860 4341 c0 -5 5 -13 10 -16 6 -3 10 -2 10 4 0 5 -4 13 -10 16 -5
3 -10 2 -10 -4z"/>
<path d="M3810 4321 c0 -5 -3 -17 -7 -27 -4 -11 -3 -15 4 -11 14 9 24 47 12
47 -5 0 -9 -4 -9 -9z"/>
<path d="M3917 4311 c-3 -12 -1 -19 3 -16 5 3 11 -1 13 -7 4 -9 6 -8 6 2 0 8
-3 21 -8 28 -6 10 -10 9 -14 -7z"/>
<path d="M3761 4284 c0 -11 3 -14 6 -6 3 7 2 16 -1 19 -3 4 -6 -2 -5 -13z"/>
<path d="M3840 4265 c0 -8 4 -15 10 -15 5 0 7 7 4 15 -4 8 -8 15 -10 15 -2 0
-4 -7 -4 -15z"/>
<path d="M3926 4262 c-2 -4 2 -16 10 -27 13 -18 14 -18 14 8 0 25 -13 36 -24
19z"/>
<path d="M3888 4235 c-3 -14 -1 -25 3 -25 5 0 9 11 9 25 0 14 -2 25 -4 25 -2
0 -6 -11 -8 -25z"/>
<path d="M4035 4250 c3 -5 8 -10 11 -10 2 0 4 5 4 10 0 6 -5 10 -11 10 -5 0
-7 -4 -4 -10z"/>
<path d="M3772 4210 c0 -14 2 -19 5 -12 2 6 2 18 0 25 -3 6 -5 1 -5 -13z"/>
<path d="M3871 4152 c-11 -39 -8 -228 3 -239 3 -3 6 16 6 43 0 37 5 54 20 67
22 19 24 25 11 46 -8 12 -11 9 -16 -12 -18 -71 -27 12 -10 96 9 48 -1 48 -14
-1z"/>
<path d="M3785 4170 c-3 -5 1 -10 9 -10 9 0 16 5 16 10 0 6 -4 10 -9 10 -6 0
-13 -4 -16 -10z"/>
<path d="M3748 4111 c-4 -15 -11 -20 -19 -15 -8 4 -10 3 -5 -5 4 -6 12 -9 17
-6 9 6 13 -9 9 -30 -1 -5 4 -5 11 2 9 9 9 21 3 45 -10 31 -10 32 -16 9z"/>
<path d="M3690 4090 c0 -5 5 -10 11 -10 5 0 7 5 4 10 -3 6 -8 10 -11 10 -2 0
-4 -4 -4 -10z"/>
<path d="M3815 4000 c3 -5 8 -10 11 -10 2 0 4 5 4 10 0 6 -5 10 -11 10 -5 0
-7 -4 -4 -10z"/>
<path d="M3900 3995 c-16 -19 -3 -40 16 -24 15 13 19 39 5 39 -5 0 -14 -7 -21
-15z"/>
<path d="M3653 3980 c2 -8 10 -15 17 -15 7 0 15 7 17 15 4 13 3 13 -6 0 -10
-13 -12 -13 -22 0 -9 13 -10 13 -6 0z"/>
<path d="M3808 3966 c-20 -15 -24 -41 -8 -51 6 -3 10 3 10 13 0 11 10 27 23
35 15 11 17 16 7 16 -8 0 -23 -6 -32 -13z"/>
<path d="M3830 3880 c0 -3 6 -13 13 -22 11 -14 14 -13 30 3 9 11 16 20 15 20
-10 5 -58 4 -58 -1z"/>
<path d="M3802 3853 c7 -25 -13 -37 -32 -20 -10 9 -11 9 -6 0 5 -9 0 -13 -13
-13 -11 0 -23 -4 -26 -10 -3 -5 -19 -10 -36 -10 -20 0 -29 -5 -29 -16 0 -8 -4
-12 -10 -9 -5 3 -10 -1 -10 -9 0 -8 -8 -20 -17 -25 -10 -6 -14 -11 -10 -11 5
0 0 -16 -12 -35 l-20 -35 20 0 c12 0 19 5 16 13 -6 18 104 119 125 113 10 -2
21 1 25 6 4 7 1 8 -7 3 -8 -5 -11 -4 -6 3 3 6 19 13 35 17 35 8 46 29 24 47
-14 11 -16 10 -11 -9z"/>
<path d="M3802 3764 c-1 -29 2 -44 8 -38 14 14 17 76 4 81 -7 2 -12 -13 -12
-43z"/>
<path d="M3771 3753 c1 -15 5 -39 9 -53 7 -20 8 -16 9 22 1 26 -3 50 -9 53 -6
4 -10 -6 -9 -22z"/>
<path d="M3838 3735 c-4 -20 -3 -23 8 -14 16 13 19 39 5 39 -5 0 -11 -11 -13
-25z"/>
<path d="M3600 3618 c0 -9 5 -20 10 -23 13 -8 13 5 0 25 -8 13 -10 13 -10 -2z"/>
<path d="M3640 3619 c0 -15 18 -19 23 -6 3 8 -1 14 -9 14 -8 0 -14 -4 -14 -8z"/>
<path d="M3790 3616 c0 -8 4 -17 9 -20 5 -4 7 3 4 14 -6 23 -13 26 -13 6z"/>
<path d="M3540 3603 c0 -13 5 -23 10 -23 13 0 13 11 0 30 -8 12 -10 11 -10 -7z"/>
<path d="M3673 3565 c-3 -9 -3 -18 -1 -21 3 -3 8 4 11 16 6 23 -1 27 -10 5z"/>
<path d="M3735 3560 c3 -5 11 -10 16 -10 6 0 7 5 4 10 -3 6 -11 10 -16 10 -6
0 -7 -4 -4 -10z"/>
<path d="M3520 3542 c0 -5 7 -15 15 -22 8 -7 15 -8 15 -2 0 5 -7 15 -15 22 -8
7 -15 8 -15 2z"/>
<path d="M3615 3502 c0 -26 7 -58 15 -71 14 -21 15 -20 15 26 -1 50 -11 93
-23 93 -4 0 -7 -22 -7 -48z"/>
<path d="M3760 3499 c0 -5 5 -7 10 -4 6 3 10 8 10 11 0 2 -4 4 -10 4 -5 0 -10
-5 -10 -11z"/>
<path d="M3604 3396 c-3 -8 -1 -23 5 -33 9 -15 10 -13 11 15 0 34 -7 42 -16
18z"/>
<path d="M3518 3328 c-10 -39 -23 -75 -30 -80 -11 -6 -11 -8 0 -8 7 0 15 7 19
16 5 13 8 13 15 2 7 -9 8 -2 4 20 -3 19 -1 32 5 32 6 0 8 4 5 8 -3 4 -1 25 4
45 4 20 5 37 1 37 -3 0 -14 -32 -23 -72z"/>
<path d="M3640 3389 c0 -5 5 -7 10 -4 6 3 10 8 10 11 0 2 -4 4 -10 4 -5 0 -10
-5 -10 -11z"/>
<path d="M3482 3374 c-5 -9 -7 -25 -5 -35 3 -11 1 -19 -3 -19 -5 0 -9 -11 -9
-24 0 -23 1 -23 18 -9 19 18 23 63 6 63 -8 0 -7 5 1 15 7 9 10 18 7 21 -3 3
-9 -2 -15 -12z"/>
<path d="M3631 3337 c-6 -8 -8 -17 -4 -20 12 -13 22 -7 20 13 -2 24 -1 24 -16
7z"/>
<path d="M3520 3189 c0 -11 4 -18 10 -14 5 3 7 12 3 20 -7 21 -13 19 -13 -6z"/>
<path d="M3620 3196 c0 -7 8 -20 18 -27 14 -11 15 -11 5 0 -6 7 -9 20 -6 27 3
8 0 14 -6 14 -6 0 -11 -6 -11 -14z"/>
<path d="M3410 3168 c0 -14 23 -58 32 -58 4 0 8 8 8 17 0 9 -3 13 -7 9 -4 -3
-13 4 -20 16 -7 13 -12 20 -13 16z"/>
<path d="M3550 3131 c0 -6 4 -13 10 -16 6 -3 7 1 4 9 -7 18 -14 21 -14 7z"/>
<path d="M3467 3103 c-4 -3 -7 -13 -7 -22 1 -13 3 -13 11 2 11 19 8 33 -4 20z"/>
<path d="M3471 3023 c0 -25 1 -26 9 -8 12 27 12 35 0 35 -5 0 -10 -12 -9 -27z"/>
<path d="M3361 3000 l1 -45 10 34 c6 23 6 37 -1 44 -8 8 -11 -2 -10 -33z"/>
<path d="M3438 2903 c7 -3 16 -2 19 1 4 3 -2 6 -13 5 -11 0 -14 -3 -6 -6z"/>
<path d="M3500 2865 c0 -16 -3 -41 -7 -55 -6 -23 -5 -24 12 -10 11 9 16 10 11
3 -4 -8 -2 -13 5 -13 8 0 9 12 4 38 -10 54 -24 75 -25 37z"/>
<path d="M3394 2835 c3 -21 16 -31 16 -12 0 9 -4 18 -9 21 -5 4 -8 -1 -7 -9z"/>
<path d="M3240 2764 c0 -8 5 -12 10 -9 6 4 8 11 5 16 -9 14 -15 11 -15 -7z"/>
<path d="M3310 2744 c0 -30 24 -74 40 -74 12 0 -9 72 -26 90 -12 12 -14 10
-14 -16z"/>
<path d="M3414 2728 c-4 -6 -3 -8 4 -4 5 3 13 0 15 -6 3 -8 6 -6 6 5 1 19 -14
23 -25 5z"/>
<path d="M3190 2655 c1 -26 2 -28 11 -12 8 14 8 22 0 30 -8 8 -11 3 -11 -18z"/>
<path d="M3292 2627 c-11 -13 -15 -32 -13 -62 2 -18 3 -18 15 5 8 14 14 29 14
34 0 5 6 12 12 16 8 5 7 9 -3 13 -9 3 -20 0 -25 -6z"/>
<path d="M3158 2517 c2 -23 3 -51 3 -61 0 -11 8 -31 18 -45 34 -49 71 -122 66
-131 -3 -4 2 -10 10 -14 8 -3 15 -4 15 -3 0 14 -61 142 -75 157 -14 15 -18 33
-16 69 1 30 -3 52 -11 58 -10 9 -12 3 -10 -30z"/>
<path d="M3214 2475 c-3 -8 -4 -20 -2 -27 3 -7 7 -1 10 15 6 29 1 36 -8 12z"/>
<path d="M3110 2455 c7 -8 17 -15 22 -15 6 0 5 7 -2 15 -7 8 -17 15 -22 15 -6
0 -5 -7 2 -15z"/>
<path d="M3270 2450 c0 -5 5 -10 11 -10 5 0 7 5 4 10 -3 6 -8 10 -11 10 -2 0
-4 -4 -4 -10z"/>
<path d="M3117 2389 c4 -13 8 -18 11 -10 2 7 -1 18 -6 23 -8 8 -9 4 -5 -13z"/>
<path d="M3365 2380 c-3 -5 -1 -10 4 -10 6 0 11 5 11 10 0 6 -2 10 -4 10 -3 0
-8 -4 -11 -10z"/>
<path d="M3075 2330 c3 -5 8 -10 11 -10 2 0 4 5 4 10 0 6 -5 10 -11 10 -5 0
-7 -4 -4 -10z"/>
<path d="M3202 2320 c0 -14 2 -19 5 -12 2 6 2 18 0 25 -3 6 -5 1 -5 -13z"/>
<path d="M3110 2306 c0 -9 40 -13 46 -5 3 5 -6 9 -20 9 -14 0 -26 -2 -26 -4z"/>
<path d="M3068 2273 c7 -3 16 -2 19 1 4 3 -2 6 -13 5 -11 0 -14 -3 -6 -6z"/>
<path d="M3125 2270 c3 -5 8 -10 11 -10 2 0 4 5 4 10 0 6 -5 10 -11 10 -5 0
-7 -4 -4 -10z"/>
<path d="M3084 2115 c-1 -14 2 -25 7 -25 5 0 9 5 9 11 0 8 5 8 15 -1 22 -18
18 -3 -5 20 -25 25 -25 25 -26 -5z"/>
<path d="M3005 2070 c-3 -5 -1 -10 4 -10 6 0 11 5 11 10 0 6 -2 10 -4 10 -3 0
-8 -4 -11 -10z"/>
<path d="M3115 2030 c3 -5 8 -10 11 -10 2 0 4 5 4 10 0 6 -5 10 -11 10 -5 0
-7 -4 -4 -10z"/>
<path d="M2980 2000 c-24 -6 -25 -6 -3 -12 12 -3 30 0 39 6 19 14 6 16 -36 6z"/>
<path d="M3110 2001 c0 -17 18 -21 24 -6 3 9 0 15 -9 15 -8 0 -15 -4 -15 -9z"/>
<path d="M4670 4724 c0 -3 7 -12 15 -20 13 -13 15 -13 15 -1 0 8 -7 17 -15 21
-8 3 -15 3 -15 0z"/>
<path d="M4580 4708 c0 -11 12 -10 30 2 12 7 10 9 -8 7 -12 0 -22 -5 -22 -9z"/>
<path d="M4605 4690 c3 -5 14 -10 23 -10 15 0 15 2 2 10 -20 13 -33 13 -25 0z"/>
<path d="M4575 4679 c-4 -6 -5 -12 -2 -15 2 -3 7 2 10 11 7 17 1 20 -8 4z"/>
<path d="M4654 4645 c1 -39 2 -43 13 -28 7 9 13 20 13 25 0 4 8 5 18 1 10 -4
6 4 -11 20 -15 15 -29 27 -31 27 -1 0 -2 -20 -2 -45z"/>
<path d="M4734 4662 c2 -9 7 -17 13 -19 14 -5 12 25 -3 31 -7 3 -11 -2 -10
-12z"/>
<path d="M4780 4620 c0 -16 38 -32 46 -19 7 12 -12 29 -33 29 -7 0 -13 -4 -13
-10z"/>
<path d="M4621 4552 c-8 -18 -16 -32 -20 -32 -4 0 -7 -9 -8 -19 -1 -14 3 -18
13 -14 8 3 14 -1 14 -8 0 -12 2 -12 9 0 5 7 13 11 19 7 6 -3 13 -2 17 4 4 6
-5 10 -19 10 -28 0 -32 10 -15 41 6 11 9 25 7 31 -2 6 -10 -3 -17 -20z"/>
<path d="M4770 4560 c0 -5 5 -10 10 -10 6 0 10 5 10 10 0 6 -4 10 -10 10 -5 0
-10 -4 -10 -10z"/>
<path d="M4701 4515 c-1 -22 16 -45 34 -45 7 0 7 3 0 8 -6 4 -16 18 -22 32
-10 22 -12 23 -12 5z"/>
<path d="M4885 4520 c-3 -5 -2 -10 4 -10 5 0 13 5 16 10 3 6 2 10 -4 10 -5 0
-13 -4 -16 -10z"/>
<path d="M4849 4497 c6 -8 9 -17 6 -21 -3 -3 0 -2 6 3 12 10 4 31 -13 31 -7 0
-7 -4 1 -13z"/>
<path d="M5010 4502 c1 -15 37 -54 43 -46 3 5 -6 19 -19 31 -13 12 -24 18 -24
15z"/>
<path d="M4810 4490 c0 -6 7 -10 15 -10 8 0 15 2 15 4 0 2 -7 6 -15 10 -8 3
-15 1 -15 -4z"/>
<path d="M5062 4440 c-7 -11 -10 -20 -6 -20 7 0 34 27 34 34 0 13 -16 5 -28
-14z"/>
<path d="M4583 4435 c4 -27 26 -66 26 -45 0 8 -6 26 -14 40 -12 21 -14 22 -12
5z"/>
<path d="M4717 4444 c-4 -4 -7 -14 -7 -23 0 -11 3 -12 11 -4 6 6 10 16 7 23
-2 6 -7 8 -11 4z"/>
<path d="M4890 4437 c0 -7 9 -18 20 -25 11 -7 20 -9 20 -4 0 4 -9 15 -20 25
-14 11 -20 13 -20 4z"/>
<path d="M4530 4416 c0 -2 7 -7 16 -10 8 -3 12 -2 9 4 -6 10 -25 14 -25 6z"/>
<path d="M4841 4370 c0 -40 2 -42 11 -22 8 16 8 28 0 45 -9 19 -11 17 -11 -23z"/>
<path d="M5255 4383 c-18 -14 -19 -15 -1 -9 15 5 17 4 7 -8 -9 -11 -7 -15 10
-19 14 -4 20 -11 16 -21 -4 -9 -3 -16 2 -16 13 0 21 39 9 46 -5 3 -12 14 -16
24 -6 17 -9 17 -27 3z"/>
<path d="M4727 4383 c-10 -9 -9 -23 2 -23 5 0 11 7 15 15 5 15 -5 20 -17 8z"/>
<path d="M5355 4379 c-9 -14 0 -22 18 -17 13 2 13 5 2 15 -10 9 -16 9 -20 2z"/>
<path d="M4933 4367 c4 -10 7 -22 7 -26 0 -4 9 -7 20 -8 11 -1 20 2 20 8 0 5
-4 9 -9 9 -5 0 -18 8 -27 18 -17 16 -18 16 -11 -1z"/>
<path d="M4768 4346 c-12 -16 -13 -27 -6 -37 8 -11 9 -10 4 5 -4 12 -2 17 6
13 8 -3 14 5 14 19 2 29 3 29 -18 0z"/>
<path d="M4990 4346 c0 -2 7 -7 16 -10 8 -3 12 -2 9 4 -6 10 -25 14 -25 6z"/>
<path d="M5378 4343 c6 -2 18 -2 25 0 6 3 1 5 -13 5 -14 0 -19 -2 -12 -5z"/>
<path d="M5439 4296 c-14 -10 -14 -13 -2 -24 11 -11 11 -17 2 -28 -6 -8 -9
-17 -6 -20 3 -3 10 4 17 15 6 12 8 21 5 21 -3 0 -1 9 5 19 12 24 1 34 -21 17z"/>
<path d="M5561 4284 c0 -11 3 -14 6 -6 3 7 2 16 -1 19 -3 4 -6 -2 -5 -13z"/>
<path d="M4938 4262 c15 -16 20 -15 25 4 1 4 -8 9 -20 10 -22 4 -22 3 -5 -14z"/>
<path d="M5512 4260 c0 -14 2 -19 5 -12 2 6 2 18 0 25 -3 6 -5 1 -5 -13z"/>
<path d="M5213 4221 c-7 -28 -10 -58 -7 -66 4 -8 2 -15 -4 -15 -11 0 -10 -25
1 -36 4 -4 7 1 7 12 0 16 2 17 10 4 8 -12 10 -11 10 7 0 12 -4 24 -9 28 -6 3
-6 17 0 35 6 16 9 41 7 56 -2 22 -5 17 -15 -25z"/>
<path d="M5561 4203 c11 -34 19 -42 19 -20 0 7 -7 22 -15 33 -13 17 -14 16 -4
-13z"/>
<path d="M4925 4200 c3 -5 12 -7 20 -3 21 7 19 13 -6 13 -11 0 -18 -4 -14 -10z"/>
<path d="M5361 4201 c-7 -5 -11 -15 -9 -22 3 -10 8 -7 17 9 13 24 12 26 -8 13z"/>
<path d="M5420 4183 c0 -10 7 -28 16 -39 15 -18 15 -18 9 4 -4 13 -2 22 4 22
6 0 11 5 11 12 0 6 -3 8 -7 5 -3 -4 -12 -2 -20 4 -10 9 -13 7 -13 -8z"/>
<path d="M5516 4184 c-10 -27 -6 -40 8 -22 7 10 17 14 22 10 4 -4 2 1 -5 11
-16 21 -17 21 -25 1z"/>
<path d="M5131 4181 c-8 -5 -9 -11 -3 -15 5 -3 12 1 16 9 6 17 6 18 -13 6z"/>
<path d="M5380 4149 c0 -5 5 -7 10 -4 6 3 10 8 10 11 0 2 -4 4 -10 4 -5 0 -10
-5 -10 -11z"/>
<path d="M5648 4125 c-6 -14 -15 -25 -19 -25 -4 0 -10 -7 -13 -16 -4 -12 -2
-15 9 -11 8 4 17 2 20 -3 4 -6 11 -10 18 -10 6 0 2 7 -9 15 -13 10 -15 17 -8
22 18 13 36 53 24 53 -6 0 -16 -11 -22 -25z"/>
<path d="M5127 4133 c-12 -11 -8 -38 8 -59 13 -18 14 -16 15 24 0 39 -8 51
-23 35z"/>
<path d="M5330 4130 c0 -5 5 -10 11 -10 5 0 7 5 4 10 -3 6 -8 10 -11 10 -2 0
-4 -4 -4 -10z"/>
<path d="M5470 4131 c0 -5 -3 -17 -7 -27 -6 -16 -5 -17 8 -4 17 15 21 40 7 40
-4 0 -8 -4 -8 -9z"/>
<path d="M5510 4124 c0 -8 5 -12 10 -9 6 3 10 10 10 16 0 5 -4 9 -10 9 -5 0
-10 -7 -10 -16z"/>
<path d="M5251 4118 c-1 -9 2 -24 5 -33 5 -13 8 -14 15 -3 12 18 11 41 0 34
-5 -4 -12 0 -14 6 -4 8 -6 7 -6 -4z"/>
<path d="M5575 4109 c-4 -5 -3 -22 1 -37 4 -15 7 -30 6 -34 -1 -5 2 -8 7 -8 5
0 8 20 7 45 -1 44 -8 56 -21 34z"/>
<path d="M5498 4083 c-6 -27 3 -64 13 -57 12 7 12 61 0 69 -5 3 -11 -3 -13
-12z"/>
<path d="M5230 4074 c0 -10 5 -26 10 -34 7 -11 8 -8 6 13 -3 32 -16 49 -16 21z"/>
<path d="M5430 4075 c0 -8 5 -15 10 -15 6 0 10 7 10 15 0 8 -4 15 -10 15 -5 0
-10 -7 -10 -15z"/>
<path d="M5356 4069 c2 -4 0 -10 -5 -14 -6 -3 -8 -12 -4 -20 3 -8 1 -15 -4
-15 -5 0 -7 -15 -4 -32 l5 -33 8 35 c5 19 9 41 10 48 1 6 5 12 10 12 4 0 8 6
8 13 0 8 -7 14 -15 14 -8 0 -12 -4 -9 -8z"/>
<path d="M5544 4073 c4 -7 2 -13 -4 -13 -6 0 -8 -5 -4 -11 4 -8 9 -8 17 0 8 8
7 14 -2 24 -11 10 -13 10 -7 0z"/>
<path d="M5728 4043 c-9 -18 -12 -35 -8 -38 12 -7 32 32 28 53 -3 12 -8 8 -20
-15z"/>
<path d="M5882 4048 c2 -6 10 -14 16 -16 7 -2 10 2 6 12 -7 18 -28 22 -22 4z"/>
<path d="M5644 4025 c-3 -14 -10 -25 -15 -25 -5 0 -6 -7 -3 -15 5 -13 8 -12
21 1 18 17 26 64 12 64 -5 0 -11 -11 -15 -25z"/>
<path d="M5926 4014 c-4 -16 -17 -29 -36 -36 -17 -6 -27 -15 -24 -21 3 -7 -3
-2 -13 11 -18 22 -33 21 -33 -2 0 -6 4 -5 9 2 6 10 10 8 14 -8 3 -13 -1 -28
-11 -39 -9 -9 -19 -26 -20 -36 -2 -11 -9 -27 -16 -35 -12 -15 -36 -66 -36 -77
0 -3 9 2 20 12 11 10 20 24 20 32 0 8 4 11 10 8 5 -3 8 0 5 7 -3 7 8 27 24 44
17 18 27 35 23 38 -3 4 2 4 12 0 15 -6 17 -3 12 14 -7 21 25 53 48 48 6 -2 8
-1 4 1 -4 3 -3 16 3 29 11 31 11 34 0 34 -5 0 -12 -12 -15 -26z"/>
<path d="M6112 4008 c0 -13 -3 -34 -7 -48 l-8 -25 26 28 c25 26 26 28 9 47
-20 25 -20 25 -20 -2z"/>
<path d="M5430 3974 c0 -8 5 -12 10 -9 6 3 10 10 10 16 0 5 -4 9 -10 9 -5 0
-10 -7 -10 -16z"/>
<path d="M5515 3985 c-5 -2 -22 -6 -37 -9 -31 -7 -36 -27 -14 -46 8 -6 12 -19
9 -28 -5 -14 -3 -15 7 -5 8 7 15 21 17 32 2 15 -2 18 -20 13 -20 -5 -21 -4 -8
12 8 9 20 15 27 12 6 -2 20 2 31 9 17 13 11 18 -12 10z"/>
<path d="M5668 3974 c-3 -5 -2 -20 2 -34 4 -18 8 -21 12 -10 6 17 -6 58 -14
44z"/>
<path d="M5545 3930 c-3 -5 -1 -10 4 -10 6 0 11 5 11 10 0 6 -2 10 -4 10 -3 0
-8 -4 -11 -10z"/>
<path d="M5920 3929 c0 -5 5 -7 10 -4 6 3 10 8 10 11 0 2 -4 4 -10 4 -5 0 -10
-5 -10 -11z"/>
<path d="M5736 3911 c-3 -4 6 -6 19 -3 14 2 25 6 25 8 0 8 -39 4 -44 -5z"/>
<path d="M5536 3895 c7 -18 6 -19 -9 -6 -10 8 -20 11 -23 8 -3 -3 3 -10 15
-16 24 -13 40 4 22 22 -9 9 -10 7 -5 -8z"/>
<path d="M5687 3894 c-6 -10 9 -42 16 -34 3 3 1 14 -3 24 -3 11 -9 15 -13 10z"/>
<path d="M5896 3873 c-2 -10 -8 -29 -11 -43 -5 -16 -4 -22 3 -15 5 6 12 25 15
43 7 34 2 44 -7 15z"/>
<path d="M6368 3853 c6 -2 18 -2 25 0 6 3 1 5 -13 5 -14 0 -19 -2 -12 -5z"/>
<path d="M5670 3842 c0 -6 -8 -13 -17 -15 -16 -4 -16 -5 -1 -6 18 -1 34 16 24
26 -3 4 -6 1 -6 -5z"/>
<path d="M5695 3826 c-18 -13 -18 -14 8 -9 15 3 27 9 27 14 0 13 -13 11 -35
-5z"/>
<path d="M6162 3820 c-7 -11 -8 -20 -3 -20 6 0 11 -16 13 -37 2 -24 8 -37 19
-39 12 -1 15 4 12 17 -3 10 -9 17 -13 14 -4 -2 -6 16 -4 40 4 48 -4 57 -24 25z"/>
<path d="M6041 3794 c0 -11 3 -14 6 -6 3 7 2 16 -1 19 -3 4 -6 -2 -5 -13z"/>
<path d="M5933 3783 c9 -2 25 -2 35 0 9 3 1 5 -18 5 -19 0 -27 -2 -17 -5z"/>
<path d="M5966 3745 c4 -8 8 -15 10 -15 2 0 4 7 4 15 0 8 -4 15 -10 15 -5 0
-7 -7 -4 -15z"/>
<path d="M6086 3731 c-5 -7 -3 -18 3 -24 14 -14 20 -6 11 17 -5 15 -9 16 -14
7z"/>
<path d="M5908 3723 c7 -3 16 -2 19 1 4 3 -2 6 -13 5 -11 0 -14 -3 -6 -6z"/>
<path d="M6180 3679 c0 -5 5 -7 10 -4 6 3 10 8 10 11 0 2 -4 4 -10 4 -5 0 -10
-5 -10 -11z"/>
<path d="M6312 3676 c1 -10 8 -17 13 -17 15 1 12 24 -3 29 -9 3 -13 -2 -10
-12z"/>
<path d="M6430 3681 c0 -7 -4 -9 -10 -6 -5 3 -10 1 -10 -4 0 -6 4 -11 9 -11
13 0 25 20 17 27 -3 4 -6 1 -6 -6z"/>
<path d="M6110 3670 c0 -5 9 -14 21 -20 19 -11 20 -10 9 9 -11 22 -30 29 -30
11z"/>
<path d="M6017 3659 c7 -7 15 -10 18 -7 3 3 -2 9 -12 12 -14 6 -15 5 -6 -5z"/>
<path d="M6231 3654 c0 -11 3 -14 6 -6 3 7 2 16 -1 19 -3 4 -6 -2 -5 -13z"/>
<path d="M6080 3630 c-19 -4 -21 -7 -9 -12 9 -3 22 -2 30 2 19 13 8 18 -21 10z"/>
<path d="M6280 3630 c0 -5 5 -10 10 -10 6 0 10 5 10 10 0 6 -4 10 -10 10 -5 0
-10 -4 -10 -10z"/>
<path d="M6146 3612 c-2 -4 14 -8 37 -10 47 -3 47 2 0 11 -18 4 -34 3 -37 -1z"/>
<path d="M6395 3610 c-3 -5 1 -10 9 -10 9 0 16 5 16 10 0 6 -4 10 -9 10 -6 0
-13 -4 -16 -10z"/>
<path d="M6270 3601 c0 -5 9 -11 20 -14 24 -6 27 8 4 17 -21 8 -24 8 -24 -3z"/>
<path d="M6143 3582 c-8 -5 -9 -13 -3 -22 8 -12 10 -11 10 5 1 19 2 19 20 -4
11 -13 20 -19 20 -14 0 17 -35 42 -47 35z"/>
<path d="M6250 3581 c0 -6 4 -13 10 -16 6 -3 7 1 4 9 -7 18 -14 21 -14 7z"/>
<path d="M6038 3563 c7 -3 16 -2 19 1 4 3 -2 6 -13 5 -11 0 -14 -3 -6 -6z"/>
<path d="M5875 3540 c-4 -6 -4 -14 -1 -17 3 -4 6 -1 6 5 0 21 30 13 40 -10 10
-23 10 -23 7 2 -2 27 -39 41 -52 20z"/>
<path d="M6190 3525 c-6 -8 -10 -19 -8 -26 2 -6 9 0 16 15 13 29 10 33 -8 11z"/>
<path d="M6266 3513 c-6 -14 -5 -15 5 -6 7 7 10 15 7 18 -3 3 -9 -2 -12 -12z"/>
<path d="M6075 3510 c3 -5 11 -10 16 -10 6 0 7 5 4 10 -3 6 -11 10 -16 10 -6
0 -7 -4 -4 -10z"/>
<path d="M6341 3496 c-19 -21 -20 -24 -6 -30 11 -4 15 -2 12 6 -2 7 5 21 16
31 11 9 16 17 10 17 -5 0 -20 -11 -32 -24z"/>
<path d="M5853 3485 c-19 -20 -16 -27 6 -16 10 6 21 7 25 3 4 -3 4 1 0 11 -7
20 -15 21 -31 2z"/>
<path d="M6191 3464 c0 -11 3 -14 6 -6 3 7 2 16 -1 19 -3 4 -6 -2 -5 -13z"/>
<path d="M5810 3450 c0 -5 5 -10 10 -10 6 0 10 5 10 10 0 6 -4 10 -10 10 -5 0
-10 -4 -10 -10z"/>
<path d="M5862 3413 c-12 -14 -16 -23 -9 -20 21 8 39 -8 40 -36 1 -14 5 -23 8
-21 10 6 30 -72 23 -90 -3 -9 -2 -16 4 -16 18 0 21 29 8 62 -8 18 -14 35 -14
38 0 3 -6 17 -13 33 -15 33 -11 37 34 40 20 2 40 6 44 11 4 4 -16 5 -46 1 -36
-5 -51 -4 -47 3 14 23 -11 19 -32 -5z"/>
<path d="M6360 3420 c0 -16 17 -20 28 -7 8 10 6 13 -9 14 -10 1 -19 -2 -19 -7z"/>
<path d="M6236 3367 c3 -10 9 -15 12 -12 3 3 0 11 -7 18 -10 9 -11 8 -5 -6z"/>
<path d="M5690 3340 c0 -5 5 -10 11 -10 5 0 7 5 4 10 -3 6 -8 10 -11 10 -2 0
-4 -4 -4 -10z"/>
<path d="M5470 3336 c0 -9 30 -14 35 -6 4 6 -3 10 -14 10 -12 0 -21 -2 -21 -4z"/>
<path d="M6198 3323 c7 -3 16 -2 19 1 4 3 -2 6 -13 5 -11 0 -14 -3 -6 -6z"/>
<path d="M5460 3303 c0 -23 15 -39 24 -25 3 5 -1 18 -9 28 -14 18 -14 18 -15
-3z"/>
<path d="M6190 3288 c-12 -22 -12 -22 6 -6 10 10 15 20 12 24 -4 3 -12 -5 -18
-18z"/>
<path d="M5795 3270 c4 -6 11 -8 16 -5 14 9 11 15 -7 15 -8 0 -12 -5 -9 -10z"/>
<path d="M5648 3263 c15 -6 16 -33 0 -33 -9 0 -9 -3 -1 -11 14 -14 37 6 39 34
1 12 -5 17 -25 16 -14 0 -20 -3 -13 -6z"/>
<path d="M5830 3254 c0 -8 5 -12 10 -9 6 3 10 10 10 16 0 5 -4 9 -10 9 -5 0
-10 -7 -10 -16z"/>
<path d="M5598 3233 c7 -3 16 -2 19 1 4 3 -2 6 -13 5 -11 0 -14 -3 -6 -6z"/>
<path d="M5936 3202 c2 -7 -3 -15 -11 -18 -8 -4 -12 -10 -9 -16 3 -5 12 -4 21
3 12 10 16 10 23 -2 7 -10 9 -8 7 9 0 12 -7 22 -13 22 -7 0 -14 3 -17 8 -2 4
-2 1 -1 -6z"/>
<path d="M5620 3203 c0 -7 4 -14 9 -17 5 -4 12 -25 16 -47 5 -28 10 -37 16
-28 4 7 4 19 -2 25 -5 7 -8 16 -7 20 2 5 -5 20 -15 34 -9 13 -17 19 -17 13z"/>
<path d="M5680 3199 c0 -5 5 -7 10 -4 6 3 10 8 10 11 0 2 -4 4 -10 4 -5 0 -10
-5 -10 -11z"/>
<path d="M5816 3197 c3 -10 9 -15 12 -12 3 3 0 11 -7 18 -10 9 -11 8 -5 -6z"/>
<path d="M5782 3144 c-23 -25 3 -41 35 -21 6 4 19 4 30 1 15 -5 15 -4 3 5 -8
6 -22 11 -32 11 -9 0 -18 4 -20 9 -1 5 -9 3 -16 -5z"/>
<path d="M5430 3110 c6 -11 16 -20 23 -19 9 0 9 2 0 6 -7 2 -13 11 -13 19 0 8
-5 14 -10 14 -7 0 -7 -6 0 -20z"/>
<path d="M5677 3124 c-6 -10 9 -42 16 -34 3 3 1 14 -3 24 -3 11 -9 15 -13 10z"/>
<path d="M5880 3120 c0 -5 5 -10 10 -10 6 0 10 5 10 10 0 6 -4 10 -10 10 -5 0
-10 -4 -10 -10z"/>
<path d="M5616 3075 c-3 -8 -1 -15 4 -15 5 0 12 -9 15 -21 7 -20 8 -20 21 6
16 32 17 38 5 30 -5 -3 -12 -1 -16 5 -9 15 -22 12 -29 -5z"/>
<path d="M5414 3069 c-6 -11 -9 -10 51 -14 53 -4 52 -2 -7 14 -23 5 -40 6 -44
0z"/>
<path d="M5470 2991 c0 -6 5 -13 10 -16 6 -3 10 1 10 9 0 9 -4 16 -10 16 -5 0
-10 -4 -10 -9z"/>
<path d="M2780 4750 c0 -5 5 -10 11 -10 5 0 7 5 4 10 -3 6 -8 10 -11 10 -2 0
-4 -4 -4 -10z"/>
<path d="M2746 4718 c3 -4 -1 -8 -8 -9 -7 0 -4 -5 7 -10 21 -10 36 -39 51 -94
l8 -30 4 34 c2 24 -1 37 -12 43 -10 5 -16 22 -16 43 0 27 -4 33 -19 32 -11 0
-17 -5 -15 -9z"/>
<path d="M2634 4670 c0 -11 4 -20 8 -20 4 0 8 9 8 20 0 11 -4 20 -8 20 -4 0
-8 -9 -8 -20z"/>
<path d="M2570 4617 c0 -7 5 -18 11 -24 8 -8 8 -17 -1 -33 -7 -14 -8 -25 -3
-29 5 -3 15 -15 21 -26 8 -14 12 -16 12 -5 0 10 7 7 20 -10 11 -14 20 -19 20
-12 0 12 -4 21 -34 79 -9 17 -16 38 -16 46 0 8 -7 17 -15 21 -8 3 -15 0 -15
-7z"/>
<path d="M2637 4616 c-5 -13 10 -36 24 -36 9 0 -1 39 -11 45 -4 3 -10 -1 -13
-9z"/>
<path d="M2732 4619 c2 -7 10 -15 17 -17 8 -3 12 1 9 9 -2 7 -10 15 -17 17 -8
3 -12 -1 -9 -9z"/>
<path d="M2452 4607 c10 -8 14 -18 10 -22 -4 -5 -1 -5 6 -1 17 10 15 14 -10
26 -21 10 -21 10 -6 -3z"/>
<path d="M2512 4585 c0 -16 2 -22 5 -12 2 9 2 23 0 30 -3 6 -5 -1 -5 -18z"/>
<path d="M2685 4570 c-4 -6 -3 -16 3 -22 13 -13 23 4 13 21 -7 10 -10 10 -16
1z"/>
<path d="M2477 4563 c-4 -3 -7 -14 -7 -24 0 -9 -5 -19 -12 -21 -8 -3 -8 -7 -2
-11 6 -3 17 10 26 29 14 31 12 44 -5 27z"/>
<path d="M2738 4503 c7 -3 16 -2 19 1 4 3 -2 6 -13 5 -11 0 -14 -3 -6 -6z"/>
<path d="M2334 4489 c-3 -5 6 -9 20 -9 31 0 34 6 6 13 -11 3 -23 1 -26 -4z"/>
<path d="M2563 4461 c6 -22 14 -38 18 -35 8 5 -11 74 -21 74 -4 0 -2 -18 3
-39z"/>
<path d="M2400 4450 c-9 -6 -10 -10 -3 -10 6 0 15 5 18 10 8 12 4 12 -15 0z"/>
<path d="M2495 4430 c-3 -6 1 -7 9 -4 18 7 21 14 7 14 -6 0 -13 -4 -16 -10z"/>
<path d="M2536 4415 c-14 -10 -17 -18 -10 -25 7 -7 14 -3 22 15 13 29 13 29
-12 10z"/>
<path d="M2596 4407 c3 -9 1 -25 -6 -36 -16 -30 2 -26 35 9 21 22 25 30 13 30
-9 0 -24 3 -32 6 -12 4 -15 2 -10 -9z"/>
<path d="M2290 4394 c0 -4 8 -13 18 -20 15 -12 15 -15 2 -24 -12 -8 -9 -10 13
-10 15 0 27 -4 27 -9 0 -5 8 -12 17 -15 18 -7 -8 26 -51 66 -20 19 -26 22 -26
12z"/>
<path d="M2260 4366 c0 -9 30 -14 35 -6 4 6 -3 10 -14 10 -12 0 -21 -2 -21 -4z"/>
<path d="M2550 4350 c0 -5 5 -10 11 -10 5 0 7 5 4 10 -3 6 -8 10 -11 10 -2 0
-4 -4 -4 -10z"/>
<path d="M1895 4340 c3 -5 8 -10 11 -10 2 0 4 5 4 10 0 6 -5 10 -11 10 -5 0
-7 -4 -4 -10z"/>
<path d="M1988 4337 c7 -8 7 -18 2 -27 -6 -8 -10 -22 -9 -30 0 -8 6 0 14 19
19 43 19 51 -1 51 -12 0 -14 -3 -6 -13z"/>
<path d="M2175 4340 c4 -6 1 -18 -6 -26 -10 -12 -9 -13 5 -8 18 7 22 44 5 44
-5 0 -7 -5 -4 -10z"/>
<path d="M2237 4330 c-4 -15 0 -20 15 -20 18 0 19 2 7 18 -7 9 -14 18 -15 20
-1 1 -4 -6 -7 -18z"/>
<path d="M2628 4313 c-7 -25 6 -53 14 -31 3 7 2 22 -2 32 -6 19 -7 19 -12 -1z"/>
<path d="M2717 4323 c-9 -8 25 -33 36 -26 4 3 3 11 -4 19 -13 15 -22 18 -32 7z"/>
<path d="M2180 4289 c0 -16 20 -49 29 -49 5 0 4 14 -2 30 -11 29 -27 41 -27
19z"/>
<path d="M2700 4270 c-14 -11 -20 -20 -13 -20 11 0 43 26 43 36 0 7 -4 5 -30
-16z"/>
<path d="M1928 4239 c3 -18 0 -34 -7 -38 -8 -5 -5 -14 10 -27 13 -10 19 -13
14 -4 -5 8 -8 33 -6 57 1 24 -2 43 -7 43 -4 0 -6 -14 -4 -31z"/>
<path d="M2350 4260 c0 -9 60 -29 64 -21 9 14 -9 27 -36 26 -16 0 -28 -2 -28
-5z"/>
<path d="M1740 4240 c0 -5 5 -10 11 -10 5 0 7 5 4 10 -3 6 -8 10 -11 10 -2 0
-4 -4 -4 -10z"/>
<path d="M2346 4214 c-8 -22 -8 -24 6 -24 6 0 8 3 5 7 -4 3 -2 12 4 20 7 8 8
13 1 13 -5 0 -13 -7 -16 -16z"/>
<path d="M2534 4214 c-19 -15 -18 -15 4 -11 12 3 20 1 16 -4 -3 -5 0 -9 5 -9
6 0 11 9 11 20 0 24 -10 25 -36 4z"/>
<path d="M1845 4210 c-4 -6 1 -7 11 -3 11 4 15 2 11 -4 -4 -6 3 -21 14 -34
l21 -24 -8 30 c-9 39 -35 58 -49 35z"/>
<path d="M2050 4205 c0 -18 26 -20 36 -3 4 7 3 8 -4 4 -7 -4 -12 -2 -12 3 0 6
-4 11 -10 11 -5 0 -10 -7 -10 -15z"/>
<path d="M1997 4190 c-3 -11 -1 -20 4 -20 5 0 9 9 9 20 0 11 -2 20 -4 20 -2 0
-6 -9 -9 -20z"/>
<path d="M2285 4200 c4 -6 11 -8 16 -5 14 9 11 15 -7 15 -8 0 -12 -5 -9 -10z"/>
<path d="M1742 4164 c10 -10 20 -16 22 -13 3 3 -5 11 -17 18 -21 13 -21 12 -5
-5z"/>
<path d="M2110 4172 c0 -5 7 -9 15 -9 8 0 12 4 9 9 -3 4 -9 8 -15 8 -5 0 -9
-4 -9 -8z"/>
<path d="M2392 4158 c6 -18 28 -21 28 -4 0 9 -7 16 -16 16 -9 0 -14 -5 -12
-12z"/>
<path d="M1500 4150 c0 -5 5 -10 10 -10 6 0 10 5 10 10 0 6 -4 10 -10 10 -5 0
-10 -4 -10 -10z"/>
<path d="M1610 4145 c0 -8 7 -18 15 -22 18 -10 39 -73 24 -73 -15 0 -10 -17 7
-24 8 -3 12 -2 9 4 -3 6 1 10 10 10 14 0 13 3 -2 27 -10 15 -16 27 -15 28 2 0
-2 12 -8 27 -14 30 -40 45 -40 23z"/>
<path d="M2010 4140 c8 -5 20 -10 25 -10 6 0 3 5 -5 10 -8 5 -19 10 -25 10 -5
0 -3 -5 5 -10z"/>
<path d="M2088 4143 c7 -3 16 -2 19 1 4 3 -2 6 -13 5 -11 0 -14 -3 -6 -6z"/>
<path d="M1744 4119 c-3 -6 -1 -16 6 -22 10 -9 11 -9 6 0 -3 6 1 13 11 15 17
3 17 4 1 10 -10 4 -20 2 -24 -3z"/>
<path d="M1815 4120 c4 -6 11 -8 16 -5 14 9 11 15 -7 15 -8 0 -12 -5 -9 -10z"/>
<path d="M1448 4113 c7 -3 16 -2 19 1 4 3 -2 6 -13 5 -11 0 -14 -3 -6 -6z"/>
<path d="M1440 4089 c0 -5 5 -7 10 -4 6 3 10 8 10 11 0 2 -4 4 -10 4 -5 0 -10
-5 -10 -11z"/>
<path d="M1980 4090 c0 -5 5 -10 10 -10 6 0 10 5 10 10 0 6 -4 10 -10 10 -5 0
-10 -4 -10 -10z"/>
<path d="M2200 4060 c-8 -15 -8 -20 3 -20 7 0 13 9 14 20 1 11 0 20 -2 20 -2
0 -9 -9 -15 -20z"/>
<path d="M1605 4060 c-11 -5 -17 -9 -13 -9 3 -1 13 -3 21 -6 8 -4 14 0 14 10
0 8 -1 15 -1 14 -1 0 -10 -4 -21 -9z"/>
<path d="M1990 4050 c5 -10 21 -21 35 -24 14 -4 25 -11 25 -16 0 -6 5 -10 10
-10 6 0 5 8 -2 19 -7 11 -14 19 -17 19 -19 -2 -31 3 -27 11 3 5 -3 11 -14 14
-16 4 -18 2 -10 -13z"/>
<path d="M1852 4039 c2 -17 7 -25 15 -22 7 3 13 0 13 -7 0 -6 4 -9 9 -6 5 3 9
17 9 31 0 23 -2 24 -13 9 -11 -16 -13 -16 -23 2 -10 17 -11 17 -10 -7z"/>
<path d="M1739 4031 c8 -5 10 -14 5 -22 -6 -11 -4 -11 10 0 13 11 14 16 4 22
-7 5 -17 9 -23 9 -5 0 -4 -4 4 -9z"/>
<path d="M1963 4026 c1 -11 9 -21 17 -23 10 -3 11 -2 4 4 -6 4 -14 15 -17 23
-5 11 -6 9 -4 -4z"/>
<path d="M1556 4007 c3 -10 9 -15 12 -12 3 3 0 11 -7 18 -10 9 -11 8 -5 -6z"/>
<path d="M1355 4000 c-3 -5 -1 -10 4 -10 6 0 11 5 11 10 0 6 -2 10 -4 10 -3 0
-8 -4 -11 -10z"/>
<path d="M1445 4000 c3 -5 13 -10 21 -10 8 0 12 5 9 10 -3 6 -13 10 -21 10 -8
0 -12 -4 -9 -10z"/>
<path d="M1286 3988 c-2 -7 -8 -29 -14 -48 -11 -34 -11 -34 6 -14 10 11 23 19
31 16 10 -3 11 0 2 17 -7 12 -9 26 -6 31 3 6 1 10 -5 10 -6 0 -12 -6 -14 -12z"/>
<path d="M1830 3989 c0 -5 5 -7 10 -4 6 3 10 8 10 11 0 2 -4 4 -10 4 -5 0 -10
-5 -10 -11z"/>
<path d="M1395 3969 c-4 -11 -4 -23 -1 -26 3 -4 6 -1 6 7 0 10 3 10 15 0 20
-17 21 6 1 26 -13 12 -16 11 -21 -7z"/>
<path d="M1778 3983 c6 -2 18 -2 25 0 6 3 1 5 -13 5 -14 0 -19 -2 -12 -5z"/>
<path d="M1193 3966 c5 -25 32 -33 40 -12 4 9 -3 16 -18 18 -14 3 -23 1 -22
-6z"/>
<path d="M1334 3968 c3 -26 29 -78 37 -78 14 0 11 17 -5 33 -8 8 -14 22 -13
32 1 10 -3 20 -10 22 -6 2 -11 -2 -9 -9z"/>
<path d="M1600 3970 c-9 -6 -10 -10 -3 -10 6 0 15 5 18 10 8 12 4 12 -15 0z"/>
<path d="M1685 3950 c3 -5 16 -10 27 -10 26 0 16 13 -13 17 -12 2 -18 -1 -14
-7z"/>
<path d="M1790 3949 c0 -5 -5 -7 -12 -3 -7 4 -8 3 -4 -4 5 -9 13 -9 27 -2 23
13 24 20 4 20 -8 0 -15 -5 -15 -11z"/>
<path d="M1900 3950 c0 -5 5 -10 10 -10 6 0 10 5 10 10 0 6 -4 10 -10 10 -5 0
-10 -4 -10 -10z"/>
<path d="M1660 3939 c4 -27 0 -45 -8 -33 -10 16 -97 30 -88 15 4 -6 16 -11 27
-11 10 0 19 -6 19 -12 0 -10 3 -9 9 1 6 8 14 10 22 5 8 -5 25 -10 38 -12 20
-3 22 -1 13 11 -7 8 -10 16 -7 19 3 3 -2 11 -11 19 -13 11 -15 11 -14 -2z"/>
<path d="M1731 3904 c-12 -14 -11 -16 4 -12 10 1 20 9 23 16 5 17 -10 15 -27
-4z"/>
<path d="M1845 3909 c-4 -6 -5 -12 -2 -15 2 -3 7 2 10 11 7 17 1 20 -8 4z"/>
<path d="M1890 3910 c0 -5 5 -10 11 -10 5 0 7 5 4 10 -3 6 -8 10 -11 10 -2 0
-4 -4 -4 -10z"/>
<path d="M1194 3885 c-9 -23 3 -45 21 -39 14 6 14 8 -1 19 -9 6 -14 17 -10 23
4 7 5 12 1 12 -3 0 -8 -7 -11 -15z"/>
<path d="M1258 3890 c-3 -8 -1 -26 4 -39 6 -17 5 -27 -4 -33 -9 -5 -6 -8 9 -8
14 0 25 -9 32 -27 l11 -28 -5 27 c-3 16 0 28 8 31 6 3 2 6 -10 6 -17 1 -24 9
-30 44 -5 24 -11 36 -15 27z"/>
<path d="M1350 3869 c0 -5 5 -7 10 -4 6 3 10 8 10 11 0 2 -4 4 -10 4 -5 0 -10
-5 -10 -11z"/>
<path d="M1639 3863 c-13 -16 -12 -17 4 -4 9 7 17 15 17 17 0 8 -8 3 -21 -13z"/>
<path d="M1703 3868 c3 -9 1 -19 -6 -22 -7 -2 -5 -5 5 -5 25 -1 30 15 11 30
-15 12 -16 12 -10 -3z"/>
<path d="M1303 3855 c0 -8 4 -15 9 -15 4 0 8 4 8 9 0 6 -4 12 -8 15 -5 3 -9
-1 -9 -9z"/>
<path d="M1345 3820 c-9 -15 -1 -23 21 -18 15 3 16 4 1 16 -11 9 -17 10 -22 2z"/>
<path d="M958 3803 c7 -3 16 -2 19 1 4 3 -2 6 -13 5 -11 0 -14 -3 -6 -6z"/>
<path d="M1460 3790 c0 -5 5 -10 11 -10 5 0 7 5 4 10 -3 6 -8 10 -11 10 -2 0
-4 -4 -4 -10z"/>
<path d="M1560 3785 c0 -8 4 -15 10 -15 5 0 7 7 4 15 -4 8 -8 15 -10 15 -2 0
-4 -7 -4 -15z"/>
<path d="M1330 3768 c0 -31 22 -87 35 -92 8 -3 15 -1 15 3 0 5 -7 11 -15 15
-10 3 -15 19 -15 46 0 22 -4 40 -10 40 -5 0 -10 -6 -10 -12z"/>
<path d="M1490 3761 c0 -13 28 -33 33 -23 3 4 -3 13 -14 20 -10 7 -19 8 -19 3z"/>
<path d="M1060 3750 c0 -5 5 -10 11 -10 5 0 7 5 4 10 -3 6 -8 10 -11 10 -2 0
-4 -4 -4 -10z"/>
<path d="M1190 3749 c0 -5 5 -7 10 -4 6 3 10 8 10 11 0 2 -4 4 -10 4 -5 0 -10
-5 -10 -11z"/>
<path d="M1163 3705 c0 -8 4 -12 9 -9 5 3 6 10 3 15 -9 13 -12 11 -12 -6z"/>
<path d="M1250 3716 c0 -2 7 -7 16 -10 8 -3 12 -2 9 4 -6 10 -25 14 -25 6z"/>
<path d="M975 3675 c46 -40 62 -47 69 -29 3 9 2 12 -4 9 -6 -3 -22 2 -38 13
-45 31 -59 35 -27 7z"/>
<path d="M1290 3659 c0 -5 5 -7 10 -4 6 3 10 8 10 11 0 2 -4 4 -10 4 -5 0 -10
-5 -10 -11z"/>
<path d="M941 3613 c-1 -7 8 -17 19 -23 14 -7 20 -7 20 0 0 5 -6 10 -14 10 -8
0 -17 6 -19 13 -4 9 -6 9 -6 0z"/>
<path d="M1155 3590 c-27 -7 -26 -8 13 -7 24 0 45 4 48 9 6 9 -19 9 -61 -2z"/>
<path d="M1230 3589 c0 -5 5 -7 10 -4 6 3 10 8 10 11 0 2 -4 4 -10 4 -5 0 -10
-5 -10 -11z"/>
<path d="M1305 3560 c-3 -5 -2 -10 4 -10 5 0 13 5 16 10 3 6 2 10 -4 10 -5 0
-13 -4 -16 -10z"/>
<path d="M1409 3565 c-3 -6 2 -26 12 -45 10 -19 18 -28 18 -20 0 23 -25 75
-30 65z"/>
<path d="M983 3545 c0 -8 4 -12 9 -9 4 3 8 9 8 15 0 5 -4 9 -8 9 -5 0 -9 -7
-9 -15z"/>
<path d="M1200 3509 c0 -5 9 -9 20 -9 11 0 20 4 20 8 0 4 -9 8 -20 9 -11 1
-20 -2 -20 -8z"/>
<path d="M1122 3494 c-7 -8 -8 -14 -3 -14 10 0 25 19 20 25 -2 1 -10 -3 -17
-11z"/>
<path d="M1563 3462 c0 -22 4 -29 10 -23 7 7 7 18 0 33 -9 20 -10 20 -10 -10z"/>
<path d="M1481 3453 c0 -7 -9 -13 -18 -14 -11 0 -13 -3 -5 -6 6 -2 12 -14 13
-26 0 -21 1 -21 10 2 5 14 8 32 6 40 -3 9 -5 10 -6 4z"/>
<path d="M1660 3440 c-9 -6 -10 -10 -3 -10 6 0 15 5 18 10 8 12 4 12 -15 0z"/>
<path d="M1590 3425 c-7 -9 -8 -15 -2 -15 5 0 12 7 16 15 3 8 4 15 2 15 -2 0
-9 -7 -16 -15z"/>
<path d="M1357 3423 c-4 -7 -3 -37 2 -65 0 -5 5 -8 9 -8 11 0 12 69 2 75 -5 3
-11 2 -13 -2z"/>
<path d="M1503 3403 c9 -2 25 -2 35 0 9 3 1 5 -18 5 -19 0 -27 -2 -17 -5z"/>
<path d="M1316 3388 c3 -5 10 -6 15 -3 13 9 11 12 -6 12 -8 0 -12 -4 -9 -9z"/>
<path d="M1615 3390 c-3 -6 1 -7 9 -4 18 7 21 14 7 14 -6 0 -13 -4 -16 -10z"/>
<path d="M1660 3370 c-12 -7 -10 -9 7 -7 12 0 19 5 17 9 -6 10 -6 10 -24 -2z"/>
<path d="M1426 3335 c-3 -8 -1 -15 3 -15 5 0 11 6 14 13 3 8 10 7 26 -7 24
-22 29 -15 5 8 -20 20 -40 20 -48 1z"/>
<path d="M1653 3337 c0 -9 9 -12 25 -9 22 4 24 2 19 -17 -3 -14 0 -24 9 -28
20 -8 17 -24 -3 -16 -14 5 -15 3 -7 -6 9 -10 17 -10 33 -2 25 14 28 39 4 37
-10 0 -18 6 -18 14 0 18 -24 39 -46 40 -9 0 -16 -6 -16 -13z"/>
<path d="M1750 3340 c0 -5 17 -10 38 -9 33 1 34 2 12 9 -36 11 -50 11 -50 0z"/>
<path d="M1165 3330 c3 -5 11 -10 16 -10 6 0 7 5 4 10 -3 6 -11 10 -16 10 -6
0 -7 -4 -4 -10z"/>
<path d="M1120 3313 c0 -15 18 -35 23 -27 3 5 -1 15 -9 22 -8 7 -14 9 -14 5z"/>
<path d="M1670 3304 c0 -8 5 -12 10 -9 6 4 8 11 5 16 -9 14 -15 11 -15 -7z"/>
<path d="M1600 3294 c0 -8 5 -12 10 -9 6 4 8 11 5 16 -9 14 -15 11 -15 -7z"/>
<path d="M1910 3294 c0 -14 3 -15 18 -3 9 7 19 15 21 16 2 2 -5 3 -17 3 -14 0
-22 -6 -22 -16z"/>
<path d="M1210 3290 c0 -5 7 -10 15 -10 8 0 15 5 15 10 0 6 -7 10 -15 10 -8 0
-15 -4 -15 -10z"/>
<path d="M1505 3283 c-5 -10 -7 -28 -6 -40 1 -12 -3 -32 -9 -43 -15 -28 -7
-36 14 -15 15 16 21 9 17 -17 0 -4 9 -13 22 -19 12 -7 25 -17 29 -23 5 -7 8
-4 9 7 1 9 2 23 3 30 2 22 44 20 51 -2 7 -23 20 -27 30 -11 3 6 -1 10 -9 10
-9 0 -16 7 -16 15 0 18 -41 20 -58 3 -9 -9 -18 -6 -37 12 -14 13 -21 26 -15
30 6 4 4 15 -4 31 -7 13 -11 30 -8 37 6 19 -5 14 -13 -5z"/>
<path d="M1765 3290 c3 -5 8 -10 11 -10 2 0 4 5 4 10 0 6 -5 10 -11 10 -5 0
-7 -4 -4 -10z"/>
<path d="M1280 3266 c0 -8 -8 -17 -17 -19 -14 -4 -12 -5 5 -6 16 -1 22 5 22
19 0 11 -2 20 -5 20 -3 0 -5 -6 -5 -14z"/>
<path d="M1655 3250 c27 -12 43 -12 25 0 -8 5 -22 9 -30 9 -10 0 -8 -3 5 -9z"/>
<path d="M1631 3224 c0 -11 3 -14 6 -6 3 7 2 16 -1 19 -3 4 -6 -2 -5 -13z"/>
<path d="M1745 3220 c10 -11 23 -20 29 -20 6 0 5 4 -3 9 -7 5 -10 14 -7 20 5
7 -1 11 -15 11 -21 0 -22 -1 -4 -20z"/>
<path d="M1880 3214 c0 -9 5 -12 12 -8 6 4 25 11 42 15 29 7 29 7 -11 8 -33 1
-43 -3 -43 -15z"/>
<path d="M1805 3200 c10 -11 23 -20 29 -20 6 0 4 5 -4 10 -8 5 -10 10 -5 10
12 0 -16 20 -29 20 -5 0 -1 -9 9 -20z"/>
<path d="M2007 3214 c7 -3 9 -12 6 -21 -4 -11 -2 -14 5 -9 18 11 14 36 -5 35
-10 0 -13 -3 -6 -5z"/>
<path d="M2090 3200 c0 -7 7 -9 16 -6 9 4 13 2 8 -5 -4 -7 -2 -10 5 -8 21 7
17 24 -6 27 -13 2 -23 -2 -23 -8z"/>
<path d="M1715 3190 c-3 -5 -2 -10 4 -10 5 0 13 5 16 10 3 6 2 10 -4 10 -5 0
-13 -4 -16 -10z"/>
<path d="M2158 3188 c8 -8 17 -8 34 0 22 10 21 11 -11 11 -27 1 -32 -2 -23
-11z"/>
<path d="M1840 3155 c7 -8 17 -12 22 -9 6 4 5 10 -3 15 -22 14 -33 10 -19 -6z"/>
<path d="M1890 3161 c0 -6 5 -13 12 -17 6 -4 8 -3 4 4 -3 6 2 13 11 15 14 4
13 5 -4 6 -13 0 -23 -3 -23 -8z"/>
<path d="M2046 3145 c-14 -22 -15 -25 -1 -25 8 0 15 5 15 11 0 5 5 7 11 3 6
-3 9 -17 6 -30 -2 -13 0 -24 4 -24 5 0 9 4 9 9 0 5 10 7 23 4 20 -5 20 -4 -5
16 -16 12 -28 31 -28 42 0 26 -15 24 -34 -6z"/>
<path d="M2154 3155 c2 -7 -1 -18 -7 -24 -6 -6 -8 -11 -5 -11 9 0 38 30 38 39
0 4 -7 8 -15 8 -9 0 -14 -6 -11 -12z"/>
<path d="M1730 3150 c0 -6 -5 -8 -11 -5 -6 4 -5 -2 3 -14 14 -22 28 -28 28
-11 0 6 7 10 15 10 8 0 15 5 15 10 0 6 -4 10 -9 10 -5 0 -16 3 -25 6 -9 3 -16
1 -16 -6z"/>
<path d="M1591 3124 c0 -11 3 -14 6 -6 3 7 2 16 -1 19 -3 4 -6 -2 -5 -13z"/>
<path d="M2266 3125 c4 -8 10 -15 15 -15 4 0 6 7 3 15 -4 8 -10 15 -15 15 -4
0 -6 -7 -3 -15z"/>
<path d="M2403 3111 c1 -22 12 -28 21 -12 3 5 -1 14 -9 21 -11 9 -14 8 -12 -9z"/>
<path d="M1584 3089 c-10 -16 19 -20 34 -6 14 15 13 16 -7 14 -12 -1 -25 -5
-27 -8z"/>
<path d="M1760 3090 c0 -6 7 -10 15 -10 8 0 15 2 15 4 0 2 -7 6 -15 10 -8 3
-15 1 -15 -4z"/>
<path d="M1840 3090 c0 -5 5 -10 11 -10 5 0 7 5 4 10 -3 6 -8 10 -11 10 -2 0
-4 -4 -4 -10z"/>
<path d="M1995 3090 c-3 -5 -1 -10 4 -10 6 0 11 5 11 10 0 6 -2 10 -4 10 -3 0
-8 -4 -11 -10z"/>
<path d="M2200 3091 c0 -5 9 -7 20 -4 11 3 20 7 20 9 0 2 -9 4 -20 4 -11 0
-20 -4 -20 -9z"/>
<path d="M2269 3073 c0 -5 -2 -16 -4 -25 -2 -10 1 -18 6 -18 5 0 9 4 9 9 0 5
3 16 6 25 3 9 1 16 -5 16 -6 0 -11 -3 -12 -7z"/>
<path d="M1681 3053 c-1 -12 -7 -23 -13 -26 -7 -2 -10 -8 -5 -13 13 -14 36 19
27 41 -8 19 -9 19 -9 -2z"/>
<path d="M1855 3060 c-8 -13 9 -20 24 -11 10 6 9 10 -3 14 -8 3 -18 2 -21 -3z"/>
<path d="M1950 3062 c0 -12 19 -26 26 -19 2 2 -2 10 -11 17 -9 8 -15 8 -15 2z"/>
<path d="M2165 3060 c-3 -5 -1 -10 4 -10 6 0 11 5 11 10 0 6 -2 10 -4 10 -3 0
-8 -4 -11 -10z"/>
<path d="M2461 3054 c0 -11 3 -14 6 -6 3 7 2 16 -1 19 -3 4 -6 -2 -5 -13z"/>
<path d="M2017 2973 c-25 -48 -26 -63 -4 -63 5 0 6 7 3 16 -3 9 3 29 15 45 11
16 19 34 17 41 -2 6 -16 -11 -31 -39z"/>
<path d="M2480 2996 c0 -13 -3 -33 -7 -43 -3 -10 -3 -15 2 -11 4 4 14 0 22
-10 8 -9 11 -10 7 -2 -4 7 -7 31 -5 52 1 21 -3 38 -9 38 -5 0 -10 -11 -10 -24z"/>
<path d="M1890 2990 c-11 -8 -7 -10 18 -8 17 1 32 6 32 10 0 11 -32 10 -50 -2z"/>
<path d="M2325 2970 c-3 -5 -1 -10 4 -10 6 0 11 5 11 10 0 6 -2 10 -4 10 -3 0
-8 -4 -11 -10z"/>
<path d="M2054 2945 c21 -16 32 -13 21 4 -3 6 -14 11 -23 11 -15 -1 -15 -2 2
-15z"/>
<path d="M2355 2950 c3 -5 8 -10 11 -10 2 0 4 5 4 10 0 6 -5 10 -11 10 -5 0
-7 -4 -4 -10z"/>
<path d="M2683 2942 c0 -12 5 -22 9 -22 11 0 10 12 -2 30 -7 12 -9 10 -7 -8z"/>
<path d="M2740 2949 c0 -5 5 -7 10 -4 6 3 10 8 10 11 0 2 -4 4 -10 4 -5 0 -10
-5 -10 -11z"/>
<path d="M2110 2919 c0 -5 5 -7 10 -4 6 3 10 8 10 11 0 2 -4 4 -10 4 -5 0 -10
-5 -10 -11z"/>
<path d="M2754 2889 c0 -14 4 -15 23 -6 25 11 23 20 -5 22 -11 1 -18 -6 -18
-16z"/>
<path d="M2505 2890 c3 -5 8 -10 11 -10 2 0 4 5 4 10 0 6 -5 10 -11 10 -5 0
-7 -4 -4 -10z"/>
<path d="M2150 2849 c0 -5 5 -7 10 -4 6 3 10 8 10 11 0 2 -4 4 -10 4 -5 0 -10
-5 -10 -11z"/>
<path d="M2244 2848 c4 -18 28 -16 34 2 4 13 3 13 -10 2 -11 -9 -18 -9 -21 -2
-3 6 -4 5 -3 -2z"/>
<path d="M2460 2850 c0 -5 5 -10 10 -10 6 0 10 5 10 10 0 6 -4 10 -10 10 -5 0
-10 -4 -10 -10z"/>
<path d="M2501 2844 c0 -11 3 -14 6 -6 3 7 2 16 -1 19 -3 4 -6 -2 -5 -13z"/>
<path d="M2166 2824 c-5 -14 -4 -15 9 -4 17 14 19 20 6 20 -5 0 -12 -7 -15
-16z"/>
<path d="M2280 2820 c0 -5 5 -10 11 -10 5 0 7 5 4 10 -3 6 -8 10 -11 10 -2 0
-4 -4 -4 -10z"/>
<path d="M2647 2809 c3 -10 9 -16 14 -13 13 8 11 21 -5 27 -10 4 -12 0 -9 -14z"/>
<path d="M2214 2798 c6 -10 14 -18 18 -18 4 0 6 8 5 18 0 10 -8 18 -18 18 -13
0 -14 -4 -5 -18z"/>
<path d="M2500 2800 c-7 -14 -7 -20 0 -20 5 0 10 6 10 14 0 8 6 17 13 19 9 4
9 6 0 6 -7 1 -17 -8 -23 -19z"/>
<path d="M2528 2793 c7 -3 16 -2 19 1 4 3 -2 6 -13 5 -11 0 -14 -3 -6 -6z"/>
<path d="M2350 2758 c0 -25 15 -29 36 -12 15 12 15 14 3 11 -9 -3 -22 0 -28 6
-8 8 -11 7 -11 -5z"/>
<path d="M2266 2743 c-6 -14 -5 -15 5 -6 7 7 10 15 7 18 -3 3 -9 -2 -12 -12z"/>
<path d="M2465 2750 c3 -5 8 -10 11 -10 2 0 4 5 4 10 0 6 -5 10 -11 10 -5 0
-7 -4 -4 -10z"/>
<path d="M2500 2705 c0 -8 7 -15 15 -15 9 0 12 6 9 15 -4 8 -10 15 -15 15 -5
0 -9 -7 -9 -15z"/>
<path d="M2610 2703 c5 -2 8 -9 4 -14 -3 -5 0 -9 6 -9 15 0 7 23 -8 26 -7 1
-8 0 -2 -3z"/>
<path d="M2690 2690 c-12 -8 -10 -10 8 -10 13 0 20 4 17 10 -7 12 -6 12 -25 0z"/>
<path d="M2520 2640 c-11 -8 -4 -10 27 -8 23 1 40 5 37 10 -7 11 -46 10 -64
-2z"/>
<path d="M2655 2640 c-3 -5 -1 -10 4 -10 6 0 11 5 11 10 0 6 -2 10 -4 10 -3 0
-8 -4 -11 -10z"/>
<path d="M2655 2540 c4 -6 11 -8 16 -5 14 9 11 15 -7 15 -8 0 -12 -5 -9 -10z"/>
<path d="M5410 3270 c0 -5 5 -10 10 -10 6 0 10 5 10 10 0 6 -4 10 -10 10 -5 0
-10 -4 -10 -10z"/>
<path d="M5290 3249 c0 -5 5 -7 10 -4 6 3 10 8 10 11 0 2 -4 4 -10 4 -5 0 -10
-5 -10 -11z"/>
<path d="M5275 3220 c3 -5 10 -10 16 -10 5 0 9 5 9 10 0 6 -7 10 -16 10 -8 0
-12 -4 -9 -10z"/>
<path d="M5225 3170 c-3 -5 1 -10 10 -10 9 0 13 5 10 10 -3 6 -8 10 -10 10 -2
0 -7 -4 -10 -10z"/>
<path d="M5265 3160 c-3 -5 1 -10 10 -10 9 0 13 5 10 10 -3 6 -8 10 -10 10 -2
0 -7 -4 -10 -10z"/>
<path d="M5230 3135 c0 -7 43 -45 52 -45 4 0 8 5 8 11 0 5 -4 8 -9 4 -5 -3
-12 -1 -15 4 -4 5 -1 11 6 14 7 2 5 3 -4 2 -10 -2 -18 1 -18 6 0 5 -4 9 -10 9
-5 0 -10 -2 -10 -5z"/>
<path d="M5038 3123 c7 -3 16 -2 19 1 4 3 -2 6 -13 5 -11 0 -14 -3 -6 -6z"/>
<path d="M5070 3126 c0 -2 7 -7 16 -10 8 -3 12 -2 9 4 -6 10 -25 14 -25 6z"/>
<path d="M5065 3090 c3 -5 8 -10 11 -10 2 0 4 5 4 10 0 6 -5 10 -11 10 -5 0
-7 -4 -4 -10z"/>
<path d="M4835 3060 c4 -6 11 -8 16 -5 14 9 11 15 -7 15 -8 0 -12 -5 -9 -10z"/>
<path d="M5035 3061 c-3 -5 -1 -12 4 -15 5 -3 11 1 15 9 6 16 -9 21 -19 6z"/>
<path d="M4980 3030 c0 -18 4 -29 10 -25 6 3 10 15 10 25 0 10 -4 22 -10 25
-6 4 -10 -7 -10 -25z"/>
<path d="M5187 3033 c-6 -14 -2 -122 6 -129 4 -4 7 25 7 64 0 67 -3 83 -13 65z"/>
<path d="M4761 3023 c3 -20 -2 -33 -14 -33 -20 0 -15 -36 5 -37 13 -1 18 5 18
22 0 13 3 30 6 39 3 9 1 16 -5 16 -6 0 -10 -3 -10 -7z"/>
<path d="M4840 3023 c0 -9 65 -11 74 -2 3 3 -12 6 -34 7 -22 2 -40 -1 -40 -5z"/>
<path d="M4795 3010 c3 -5 8 -10 11 -10 2 0 4 5 4 10 0 6 -5 10 -11 10 -5 0
-7 -4 -4 -10z"/>
<path d="M5010 3001 c0 -12 4 -20 9 -17 5 4 12 0 14 -6 4 -9 6 -7 6 3 1 9 -6
22 -14 29 -13 10 -15 9 -15 -9z"/>
<path d="M5130 2960 c-12 -8 -10 -10 8 -10 13 0 20 4 17 10 -7 12 -6 12 -25 0z"/>
<path d="M5050 2949 c0 -5 5 -7 10 -4 6 3 10 8 10 11 0 2 -4 4 -10 4 -5 0 -10
-5 -10 -11z"/>
<path d="M4906 2934 c-4 -9 -4 -19 -1 -22 2 -3 7 3 11 12 4 9 4 19 1 22 -2 3
-7 -3 -11 -12z"/>
<path d="M5395 2940 c-3 -5 -1 -18 4 -27 9 -16 10 -14 11 10 0 28 -5 34 -15
17z"/>
<path d="M4772 2929 c3 -8 1 -23 -5 -34 -9 -18 -9 -19 6 -6 20 16 22 37 6 47
-7 4 -10 1 -7 -7z"/>
<path d="M4685 2910 c3 -5 8 -10 11 -10 2 0 4 5 4 10 0 6 -5 10 -11 10 -5 0
-7 -4 -4 -10z"/>
<path d="M4875 2910 c3 -5 8 -10 11 -10 2 0 4 5 4 10 0 6 -5 10 -11 10 -5 0
-7 -4 -4 -10z"/>
<path d="M4948 2889 c-20 -24 -26 -42 -26 -75 0 -24 -3 -52 -7 -63 -3 -12 -2
-21 3 -21 15 0 32 25 36 56 9 58 25 109 35 112 15 5 14 22 -1 22 -7 0 -25 -14
-40 -31z"/>
<path d="M4847 2874 c5 -13 3 -15 -7 -9 -9 5 -11 4 -6 -3 4 -7 11 -12 17 -12
12 0 12 27 -1 35 -6 4 -7 -1 -3 -11z"/>
<path d="M5224 2879 c-11 -18 11 -32 25 -16 9 12 8 16 -3 20 -9 4 -18 1 -22
-4z"/>
<path d="M5280 2880 c20 -13 53 -13 45 0 -3 6 -18 10 -33 10 -21 0 -24 -2 -12
-10z"/>
<path d="M5320 2864 l-25 -14 33 0 c18 0 31 4 28 9 -4 5 0 12 6 14 9 4 8 5 -2
5 -8 0 -26 -6 -40 -14z"/>
<path d="M5015 2850 c-3 -5 -1 -10 4 -10 6 0 11 5 11 10 0 6 -2 10 -4 10 -3 0
-8 -4 -11 -10z"/>
<path d="M5175 2850 c-3 -5 1 -10 9 -10 9 0 16 5 16 10 0 6 -4 10 -9 10 -6 0
-13 -4 -16 -10z"/>
<path d="M4882 2824 c-10 -12 -10 -14 2 -14 17 0 30 16 19 23 -5 3 -14 -1 -21
-9z"/>
<path d="M4745 2809 c-11 -16 -1 -19 13 -3 7 8 8 14 3 14 -5 0 -13 -5 -16 -11z"/>
<path d="M4839 2788 c-8 -16 -3 -48 8 -52 8 -3 11 -10 8 -16 -3 -5 -2 -10 2
-10 12 0 33 37 26 44 -10 10 -25 7 -18 -4 3 -5 1 -10 -4 -10 -10 0 -16 21 -12
43 1 6 -7 10 -10 5z"/>
<path d="M5025 2780 c3 -5 11 -10 16 -10 6 0 7 5 4 10 -3 6 -11 10 -16 10 -6
0 -7 -4 -4 -10z"/>
<path d="M4754 2758 c3 -13 6 -27 6 -33 0 -5 4 -4 9 4 10 16 3 51 -11 51 -6 0
-8 -10 -4 -22z"/>
<path d="M4968 2743 c6 -2 18 -2 25 0 6 3 1 5 -13 5 -14 0 -19 -2 -12 -5z"/>
<path d="M4931 2711 c-11 -7 -7 -13 18 -25 33 -18 39 -12 17 17 -15 20 -16 20
-35 8z"/>
<path d="M4990 2710 c0 -5 5 -10 11 -10 5 0 7 5 4 10 -3 6 -8 10 -11 10 -2 0
-4 -4 -4 -10z"/>
<path d="M4637 2660 c-9 -12 -20 -19 -26 -16 -5 4 -12 2 -15 -3 -3 -5 1 -11 9
-15 8 -3 17 -1 20 5 4 5 11 6 17 3 7 -5 9 -1 5 9 -3 9 -1 18 6 20 7 2 9 7 6
11 -4 4 -14 -2 -22 -14z"/>
<path d="M4833 2633 c-3 -10 -8 -21 -10 -25 -2 -5 0 -8 4 -8 14 0 34 38 23 45
-6 4 -13 -2 -17 -12z"/>
<path d="M4871 2634 c0 -11 3 -14 6 -6 3 7 2 16 -1 19 -3 4 -6 -2 -5 -13z"/>
<path d="M4747 2609 c7 -7 15 -10 18 -7 3 3 -2 9 -12 12 -14 6 -15 5 -6 -5z"/>
<path d="M4609 2560 c-1 -3 -1 -8 0 -12 0 -5 -4 -8 -11 -8 -6 0 -9 -3 -5 -6 3
-4 18 3 32 14 24 19 24 21 6 19 -12 -1 -22 -4 -22 -7z"/>
<path d="M4675 2540 c-3 -5 -1 -10 4 -10 6 0 11 5 11 10 0 6 -2 10 -4 10 -3 0
-8 -4 -11 -10z"/>
<path d="M2798 2583 c7 -3 16 -2 19 1 4 3 -2 6 -13 5 -11 0 -14 -3 -6 -6z"/>
</g>
</svg>
